<svg version="1.1" viewBox="0.0 0.0 600.0 371.0" fill="none" stroke="none" stroke-linecap="square" stroke-miterlimit="10" width="600" height="371" xmlns:xlink="http://www.w3.org/1999/xlink" xmlns="http://www.w3.org/2000/svg"><path fill="#ffffff" d="M0 0L600.0 0L600.0 371.0L0 371.0L0 0Z" fill-rule="nonzero"/><path stroke="#333333" stroke-width="1.0" stroke-linecap="butt" d="M66.5 300.5L581.5 300.5" fill-rule="nonzero"/><path stroke="#cccccc" stroke-width="1.0" stroke-linecap="butt" d="M66.5 229.5L581.5 229.5" fill-rule="nonzero"/><path stroke="#cccccc" stroke-width="1.0" stroke-linecap="butt" d="M66.5 159.5L581.5 159.5" fill-rule="nonzero"/><path stroke="#cccccc" stroke-width="1.0" stroke-linecap="butt" d="M66.5 88.5L581.5 88.5" fill-rule="nonzero"/><clipPath id="id_0"><path d="M66.55 88.28333L581.45 88.28333L581.45 300.45L66.55 300.45L66.55 88.28333Z" clip-rule="nonzero"/></clipPath><path stroke="#4285f4" stroke-width="2.0" stroke-linecap="butt" clip-path="url(#id_0)" d="M103.328575 254.78325L176.88571 258.1369L250.44286 118.60053L324.0 159.18802L397.55713 286.00287L471.1143 289.5616L544.67145 271.93338" fill-rule="nonzero"/><path stroke="#ea4335" stroke-width="2.0" stroke-linecap="butt" clip-path="url(#id_0)" d="M103.328575 275.76794L176.88571 274.06354L250.44286 177.19673L324.0 207.27065L397.55713 290.73984L471.1143 295.87994L544.67145 277.62512" fill-rule="nonzero"/><path fill="#000000" fill-opacity="0.0" clip-path="url(#id_0)" d="M106.328575 254.78325C106.328575 256.4401 104.98543 257.78323 103.328575 257.78323C101.671715 257.78323 100.328575 256.4401 100.328575 254.78325C100.328575 253.12639 101.671715 251.78325 103.328575 251.78325C104.98543 251.78325 106.328575 253.12639 106.328575 254.78325Z" fill-rule="nonzero"/><path fill="#000000" fill-opacity="0.0" clip-path="url(#id_0)" d="M179.88571 258.1369C179.88571 259.79376 178.54257 261.1369 176.88571 261.1369C175.22887 261.1369 173.88571 259.79376 173.88571 258.1369C173.88571 256.48004 175.22887 255.1369 176.88571 255.1369C178.54257 255.1369 179.88571 256.48004 179.88571 258.1369Z" fill-rule="nonzero"/><path fill="#000000" fill-opacity="0.0" clip-path="url(#id_0)" d="M253.44286 118.60053C253.44286 120.25739 252.09972 121.60053 250.44286 121.60053C248.786 121.60053 247.44286 120.25739 247.44286 118.60053C247.44286 116.94368 248.786 115.60053 250.44286 115.60053C252.09972 115.60053 253.44286 116.94368 253.44286 118.60053Z" fill-rule="nonzero"/><path fill="#000000" fill-opacity="0.0" clip-path="url(#id_0)" d="M327.0 159.18802C327.0 160.84488 325.65686 162.18802 324.0 162.18802C322.34314 162.18802 321.0 160.84488 321.0 159.18802C321.0 157.53116 322.34314 156.18802 324.0 156.18802C325.65686 156.18802 327.0 157.53116 327.0 159.18802Z" fill-rule="nonzero"/><path fill="#000000" fill-opacity="0.0" clip-path="url(#id_0)" d="M400.55713 286.00287C400.55713 287.65973 399.214 289.00287 397.55713 289.00287C395.9003 289.00287 394.55713 287.65973 394.55713 286.00287C394.55713 284.346 395.9003 283.00287 397.55713 283.00287C399.214 283.00287 400.55713 284.346 400.55713 286.00287Z" fill-rule="nonzero"/><path fill="#000000" fill-opacity="0.0" clip-path="url(#id_0)" d="M474.1143 289.5616C474.1143 291.21848 472.77115 292.5616 471.1143 292.5616C469.45743 292.5616 468.1143 291.21848 468.1143 289.5616C468.1143 287.90475 469.45743 286.5616 471.1143 286.5616C472.77115 286.5616 474.1143 287.90475 474.1143 289.5616Z" fill-rule="nonzero"/><path fill="#000000" fill-opacity="0.0" clip-path="url(#id_0)" d="M547.67145 271.93338C547.67145 273.59024 546.3283 274.93338 544.67145 274.93338C543.0146 274.93338 541.67145 273.59024 541.67145 271.93338C541.67145 270.27652 543.0146 268.93338 544.67145 268.93338C546.3283 268.93338 547.67145 270.27652 547.67145 271.93338Z" fill-rule="nonzero"/><path fill="#000000" fill-opacity="0.0" clip-path="url(#id_0)" d="M106.328575 275.76794C106.328575 277.4248 104.98543 278.76794 103.328575 278.76794C101.671715 278.76794 100.328575 277.4248 100.328575 275.76794C100.328575 274.11108 101.671715 272.76794 103.328575 272.76794C104.98543 272.76794 106.328575 274.11108 106.328575 275.76794Z" fill-rule="nonzero"/><path fill="#000000" fill-opacity="0.0" clip-path="url(#id_0)" d="M179.88571 274.06354C179.88571 275.7204 178.54257 277.06354 176.88571 277.06354C175.22887 277.06354 173.88571 275.7204 173.88571 274.06354C173.88571 272.40668 175.22887 271.06354 176.88571 271.06354C178.54257 271.06354 179.88571 272.40668 179.88571 274.06354Z" fill-rule="nonzero"/><path fill="#000000" fill-opacity="0.0" clip-path="url(#id_0)" d="M253.44286 177.19673C253.44286 178.85358 252.09972 180.19673 250.44286 180.19673C248.786 180.19673 247.44286 178.85358 247.44286 177.19673C247.44286 175.53987 248.786 174.19673 250.44286 174.19673C252.09972 174.19673 253.44286 175.53987 253.44286 177.19673Z" fill-rule="nonzero"/><path fill="#000000" fill-opacity="0.0" clip-path="url(#id_0)" d="M327.0 207.27065C327.0 208.92749 325.65686 210.27065 324.0 210.27065C322.34314 210.27065 321.0 208.92749 321.0 207.27065C321.0 205.61378 322.34314 204.27065 324.0 204.27065C325.65686 204.27065 327.0 205.61378 327.0 207.27065Z" fill-rule="nonzero"/><path fill="#000000" fill-opacity="0.0" clip-path="url(#id_0)" d="M400.55713 290.73984C400.55713 292.3967 399.214 293.73984 397.55713 293.73984C395.9003 293.73984 394.55713 292.3967 394.55713 290.73984C394.55713 289.08298 395.9003 287.73984 397.55713 287.73984C399.214 287.73984 400.55713 289.08298 400.55713 290.73984Z" fill-rule="nonzero"/><path fill="#000000" fill-opacity="0.0" clip-path="url(#id_0)" d="M474.1143 295.87994C474.1143 297.53677 472.77115 298.87994 471.1143 298.87994C469.45743 298.87994 468.1143 297.53677 468.1143 295.87994C468.1143 294.22308 469.45743 292.87994 471.1143 292.87994C472.77115 292.87994 474.1143 294.22308 474.1143 295.87994Z" fill-rule="nonzero"/><path fill="#000000" fill-opacity="0.0" clip-path="url(#id_0)" d="M547.67145 277.62512C547.67145 279.28195 546.3283 280.62512 544.67145 280.62512C543.0146 280.62512 541.67145 279.28195 541.67145 277.62512C541.67145 275.96826 543.0146 274.62512 544.67145 274.62512C546.3283 274.62512 547.67145 275.96826 547.67145 277.62512Z" fill-rule="nonzero"/><path fill="#000000" d="M296.14062 340.5594L289.71875 340.5594Q289.15625 340.5594 288.82812 340.8719Q288.54688 341.1844 288.54688 341.73126L288.54688 344.52814Q288.54688 344.9969 288.82812 345.27814Q289.125 345.575 289.65625 345.575L296.3125 345.575Q296.60938 345.575 296.59375 345.27814Q296.59375 344.98126 296.28125 344.98126L289.71875 344.98126Q289.45312 344.98126 289.34375 344.8719Q289.25 344.77814 289.25 344.5594L289.25 341.59064Q289.25 341.35626 289.35938 341.2625Q289.48438 341.16876 289.73438 341.16876L296.1875 341.16876Q296.32812 341.16876 296.39062 341.0594Q296.46875 340.98126 296.46875 340.85626Q296.45312 340.73126 296.375 340.65314Q296.28125 340.5594 296.14062 340.5594ZM292.15625 346.21564L292.15625 348.6375L287.95312 348.6375Q287.79688 348.6375 287.70312 348.71564Q287.60938 348.8094 287.60938 348.9344Q287.59375 349.04376 287.65625 349.1375Q287.73438 349.23126 287.85938 349.23126L297.0625 349.23126Q297.21875 349.23126 297.3125 349.1375Q297.40625 349.04376 297.40625 348.9344Q297.40625 348.8094 297.3125 348.71564Q297.21875 348.6375 297.04688 348.6375L292.84375 348.6375L292.84375 346.2625Q292.84375 346.09064 292.71875 345.9969Q292.625 345.90314 292.5 345.90314Q292.35938 345.90314 292.26562 345.98126Q292.15625 346.0594 292.15625 346.21564ZM307.09375 340.5594L300.96875 340.5594Q300.625 340.5594 300.625 340.85626Q300.625 341.16876 300.96875 341.16876L306.96875 341.16876Q307.26562 341.16876 307.39062 341.2469Q307.53125 341.34064 307.53125 341.575L307.53125 342.52814Q307.53125 342.71564 307.39062 342.8094Q307.25 342.8875 307.0 342.8875L301.67188 342.8875Q301.15625 342.8875 300.85938 343.1844Q300.59375 343.45 300.59375 343.8875L300.59375 345.15314Q300.59375 345.6219 300.85938 345.90314Q301.10938 346.1844 301.5625 346.1844L308.17188 346.1844Q308.32812 346.1844 308.40625 346.09064Q308.48438 345.9969 308.48438 345.8719Q308.48438 345.7625 308.39062 345.66876Q308.29688 345.575 308.14062 345.575L301.84375 345.575Q301.53125 345.575 301.40625 345.48126Q301.29688 345.3719 301.29688 345.1375L301.29688 343.95Q301.29688 343.7 301.40625 343.60626Q301.53125 343.4969 301.8125 343.4969L307.10938 343.4969Q307.6875 343.4969 307.95312 343.29376Q308.23438 343.09064 308.23438 342.59064L308.23438 341.4969Q308.23438 341.02814 307.95312 340.79376Q307.65625 340.5594 307.09375 340.5594ZM304.17188 346.35626L304.17188 348.6375L299.95312 348.6375Q299.79688 348.6375 299.70312 348.71564Q299.60938 348.8094 299.60938 348.9344Q299.59375 349.04376 299.65625 349.1375Q299.73438 349.23126 299.85938 349.23126L309.0625 349.23126Q309.21875 349.23126 309.3125 349.1375Q309.40625 349.04376 309.40625 348.9344Q309.40625 348.8094 309.3125 348.71564Q309.21875 348.6375 309.04688 348.6375L304.85938 348.6375L304.85938 346.40314Q304.85938 346.23126 304.73438 346.1375Q304.64062 346.04376 304.51562 346.04376Q304.375 346.04376 304.28125 346.1219Q304.17188 346.2 304.17188 346.35626ZM320.29688 340.52814L312.73438 340.52814Q312.40625 340.52814 312.40625 340.825Q312.40625 341.1219 312.73438 341.1219L316.15625 341.1219Q316.09375 341.91876 314.98438 342.54376Q313.89062 343.15314 312.35938 343.3094Q312.17188 343.325 312.07812 343.41876Q311.98438 343.52814 312.03125 343.65314Q312.04688 343.79376 312.15625 343.8875Q312.28125 343.98126 312.46875 343.95Q313.92188 343.79376 315.0625 343.23126Q316.15625 342.6844 316.5 342.0125Q316.85938 342.6844 317.95312 343.23126Q319.10938 343.79376 320.5625 343.95Q320.73438 343.98126 320.84375 343.8875Q320.95312 343.79376 320.98438 343.65314Q321.0 343.52814 320.9375 343.41876Q320.84375 343.325 320.6875 343.3094Q319.09375 343.1375 318.0 342.52814Q316.90625 341.91876 316.84375 341.1219L320.29688 341.1219Q320.59375 341.1219 320.59375 340.825Q320.59375 340.52814 320.29688 340.52814ZM321.04688 345.21564L316.82812 345.21564L316.82812 343.9344Q316.82812 343.6219 316.48438 343.6375Q316.15625 343.6375 316.15625 343.95L316.15625 345.21564L311.95312 345.21564Q311.79688 345.21564 311.70312 345.29376Q311.60938 345.3875 311.60938 345.5125Q311.59375 345.6219 311.65625 345.71564Q311.73438 345.8094 311.85938 345.8094L321.0625 345.8094Q321.21875 345.8094 321.3125 345.71564Q321.40625 345.6219 321.40625 345.5125Q321.40625 345.3875 321.3125 345.29376Q321.21875 345.21564 321.04688 345.21564ZM316.5 346.6375Q314.42188 346.6375 313.35938 347.1219Q312.40625 347.575 312.40625 348.35626Q312.40625 349.1375 313.35938 349.575Q314.42188 350.075 316.5 350.075Q318.57812 350.075 319.625 349.575Q320.59375 349.1375 320.59375 348.35626Q320.59375 347.5594 319.625 347.1219Q318.59375 346.6375 316.5 346.6375ZM316.5 347.21564Q318.26562 347.21564 319.125 347.52814Q319.90625 347.8094 319.90625 348.35626Q319.90625 348.8875 319.125 349.15314Q318.26562 349.48126 316.5 349.48126Q314.71875 349.48126 313.85938 349.15314Q313.09375 348.8875 313.09375 348.35626Q313.09375 347.8094 313.85938 347.52814Q314.71875 347.21564 316.5 347.21564ZM331.32812 340.46564L324.875 340.46564Q324.53125 340.46564 324.51562 340.7625Q324.51562 341.075 324.875 341.075L331.20312 341.075Q331.5 341.075 331.625 341.16876Q331.76562 341.2625 331.76562 341.4969L331.76562 342.1219Q331.76562 342.3094 331.625 342.3875Q331.48438 342.48126 331.23438 342.48126L325.625 342.48126Q325.09375 342.48126 324.8125 342.7469Q324.54688 342.9969 324.54688 343.41876L324.54688 344.16876Q324.54688 344.59064 324.84375 344.8719Q325.15625 345.1375 325.64062 345.1375L332.28125 345.1375Q332.45312 345.1375 332.5625 345.02814Q332.64062 344.95 332.64062 344.825Q332.64062 344.7 332.54688 344.6219Q332.4375 344.52814 332.28125 344.52814L325.78125 344.52814Q325.51562 344.52814 325.39062 344.41876Q325.25 344.3094 325.25 344.0594L325.25 343.54376Q325.25 343.3094 325.34375 343.1844Q325.48438 343.09064 325.75 343.09064L331.375 343.09064Q331.90625 343.09064 332.1875 342.85626Q332.46875 342.6219 332.46875 342.1219L332.46875 341.40314Q332.46875 340.9969 332.17188 340.7469Q331.85938 340.46564 331.32812 340.46564ZM333.07812 346.325L323.95312 346.325Q323.79688 346.325 323.6875 346.41876Q323.60938 346.4969 323.60938 346.6219Q323.59375 346.7469 323.65625 346.825Q323.75 346.9344 323.89062 346.9344L326.09375 346.9344L326.09375 348.04376Q326.09375 348.575 326.01562 348.8719Q325.92188 349.23126 325.65625 349.5125Q325.53125 349.6219 325.53125 349.77814Q325.54688 349.90314 325.65625 349.9969Q325.76562 350.09064 325.90625 350.09064Q326.04688 350.09064 326.17188 349.96564Q326.45312 349.6375 326.625 349.15314Q326.79688 348.6375 326.79688 348.04376L326.79688 346.9344L330.54688 346.9344L330.54688 349.7Q330.54688 349.85626 330.64062 349.96564Q330.73438 350.04376 330.875 350.04376Q331.01562 350.04376 331.10938 349.95Q331.23438 349.85626 331.23438 349.6844L331.23438 346.9344L333.10938 346.9344Q333.40625 346.9344 333.40625 346.6219Q333.39062 346.325 333.07812 346.325ZM339.15625 340.575Q337.8125 340.575 337.01562 341.325Q336.3125 342.0125 336.3125 342.9969Q336.3125 343.98126 337.01562 344.65314Q337.79688 345.40314 339.15625 345.40314Q340.48438 345.40314 341.26562 344.65314Q341.98438 343.98126 341.98438 342.9969Q341.98438 342.0125 341.26562 341.325Q340.46875 340.575 339.15625 340.575ZM339.15625 341.16876Q340.17188 341.16876 340.76562 341.73126Q341.28125 342.2469 341.28125 342.9969Q341.28125 343.7625 340.76562 344.2625Q340.17188 344.825 339.15625 344.825Q338.09375 344.825 337.51562 344.2625Q337.0 343.7625 337.0 342.9969Q337.0 342.2469 337.51562 341.73126Q338.10938 341.16876 339.15625 341.16876ZM344.28125 349.6844L344.28125 340.5594Q344.28125 340.40314 344.15625 340.325Q344.0625 340.23126 343.92188 340.23126Q343.76562 340.23126 343.67188 340.325Q343.57812 340.41876 343.57812 340.5594L343.57812 349.6844Q343.57812 349.85626 343.67188 349.95Q343.76562 350.04376 343.92188 350.04376Q344.0625 350.04376 344.15625 349.95Q344.28125 349.85626 344.28125 349.6844ZM335.85938 347.96564Q335.6875 347.96564 335.57812 348.0594Q335.48438 348.1375 335.48438 348.2625Q335.48438 348.3875 335.57812 348.46564Q335.6875 348.5594 335.85938 348.5594Q338.125 348.5594 339.70312 348.45Q341.67188 348.325 343.03125 348.02814Q343.1875 347.98126 343.26562 347.8719Q343.34375 347.77814 343.3125 347.66876Q343.28125 347.54376 343.17188 347.4969Q343.03125 347.4344 342.84375 347.48126Q341.54688 347.73126 339.54688 347.8719Q337.90625 347.96564 335.85938 347.96564Z" fill-rule="nonzero"/><path fill="#000000" d="M355.15625 340.60626Q355.15625 342.09064 353.9375 343.075Q352.85938 343.95 351.375 344.075Q351.1875 344.075 351.10938 344.1844Q351.03125 344.29376 351.03125 344.41876Q351.0625 344.54376 351.17188 344.6375Q351.28125 344.73126 351.45312 344.7Q352.90625 344.4969 354.0625 343.73126Q355.15625 342.9969 355.5 342.0594Q355.85938 342.98126 356.95312 343.73126Q358.09375 344.4969 359.46875 344.7Q359.67188 344.73126 359.8125 344.6375Q359.9375 344.54376 359.95312 344.41876Q359.98438 344.27814 359.90625 344.16876Q359.8125 344.0594 359.64062 344.04376Q358.14062 343.8875 357.07812 343.04376Q355.84375 342.075 355.84375 340.60626Q355.84375 340.41876 355.71875 340.325Q355.625 340.23126 355.5 340.23126Q355.35938 340.23126 355.26562 340.325Q355.15625 340.41876 355.15625 340.60626ZM360.07812 345.95L350.95312 345.95Q350.625 345.95 350.60938 346.2469Q350.60938 346.5594 350.90625 346.5594L355.15625 346.5594L355.15625 349.7Q355.15625 349.85626 355.26562 349.96564Q355.35938 350.04376 355.5 350.04376Q355.625 350.04376 355.71875 349.95Q355.84375 349.85626 355.84375 349.6844L355.84375 346.5594L360.09375 346.5594Q360.40625 346.5594 360.40625 346.2469Q360.39062 345.95 360.07812 345.95Z" fill-rule="nonzero"/><path fill="#000000" d="M54.05 300.21564Q54.05 298.6844 54.3625 297.7625Q54.675 296.825 55.284374 296.325Q55.909374 295.825 56.846874 295.825Q57.534374 295.825 58.05 296.10626Q58.58125 296.3875 58.925 296.91876Q59.26875 297.4344 59.45625 298.1844Q59.64375 298.9344 59.64375 300.21564Q59.64375 301.73126 59.33125 302.65314Q59.034374 303.575 58.409374 304.09064Q57.8 304.59064 56.846874 304.59064Q55.6125 304.59064 54.89375 303.7Q54.05 302.6375 54.05 300.21564ZM55.128124 300.21564Q55.128124 302.325 55.628124 303.02814Q56.128124 303.73126 56.846874 303.73126Q57.58125 303.73126 58.065624 303.02814Q58.565624 302.325 58.565624 300.21564Q58.565624 298.09064 58.065624 297.40314Q57.58125 296.7 56.83125 296.7Q56.1125 296.7 55.675 297.3094Q55.128124 298.09064 55.128124 300.21564Z" fill-rule="nonzero"/><path fill="#000000" d="M26.05 231.47778L27.159374 231.38403Q27.284374 232.19653 27.721874 232.60278Q28.175 233.00903 28.815624 233.00903Q29.565624 233.00903 30.096874 232.43091Q30.628124 231.85278 30.628124 230.91528Q30.628124 230.00903 30.1125 229.49341Q29.6125 228.96216 28.784374 228.96216Q28.284374 228.96216 27.8625 229.19653Q27.45625 229.43091 27.221874 229.79028L26.2375 229.66528L27.065624 225.25903L31.346874 225.25903L31.346874 226.25903L27.909374 226.25903L27.45625 228.57153Q28.221874 228.02466 29.065624 228.02466Q30.190624 228.02466 30.95625 228.80591Q31.7375 229.58716 31.7375 230.82153Q31.7375 231.97778 31.065624 232.83716Q30.2375 233.86841 28.815624 233.86841Q27.64375 233.86841 26.89375 233.21216Q26.159374 232.55591 26.05 231.47778ZM33.05 229.49341Q33.05 227.96216 33.3625 227.04028Q33.675 226.10278 34.284374 225.60278Q34.909374 225.10278 35.846874 225.10278Q36.534374 225.10278 37.05 225.38403Q37.58125 225.66528 37.925 226.19653Q38.26875 226.71216 38.45625 227.46216Q38.64375 228.21216 38.64375 229.49341Q38.64375 231.00903 38.33125 231.93091Q38.034374 232.85278 37.409374 233.36841Q36.8 233.86841 35.846874 233.86841Q34.6125 233.86841 33.89375 232.97778Q33.05 231.91528 33.05 229.49341ZM34.128124 229.49341Q34.128124 231.60278 34.628124 232.30591Q35.128124 233.00903 35.846874 233.00903Q36.58125 233.00903 37.065624 232.30591Q37.565624 231.60278 37.565624 229.49341Q37.565624 227.36841 37.065624 226.68091Q36.58125 225.97778 35.83125 225.97778Q35.1125 225.97778 34.675 226.58716Q34.128124 227.36841 34.128124 229.49341ZM40.05 229.49341Q40.05 227.96216 40.3625 227.04028Q40.675 226.10278 41.284374 225.60278Q41.909374 225.10278 42.846874 225.10278Q43.534374 225.10278 44.05 225.38403Q44.58125 225.66528 44.925 226.19653Q45.26875 226.71216 45.45625 227.46216Q45.64375 228.21216 45.64375 229.49341Q45.64375 231.00903 45.33125 231.93091Q45.034374 232.85278 44.409374 233.36841Q43.8 233.86841 42.846874 233.86841Q41.6125 233.86841 40.89375 232.97778Q40.05 231.91528 40.05 229.49341ZM41.128124 229.49341Q41.128124 231.60278 41.628124 232.30591Q42.128124 233.00903 42.846874 233.00903Q43.58125 233.00903 44.065624 232.30591Q44.565624 231.60278 44.565624 229.49341Q44.565624 227.36841 44.065624 226.68091Q43.58125 225.97778 42.83125 225.97778Q42.1125 225.97778 41.675 226.58716Q41.128124 227.36841 41.128124 229.49341ZM47.05 229.49341Q47.05 227.96216 47.3625 227.04028Q47.675 226.10278 48.284374 225.60278Q48.909374 225.10278 49.846874 225.10278Q50.534374 225.10278 51.05 225.38403Q51.58125 225.66528 51.925 226.19653Q52.26875 226.71216 52.45625 227.46216Q52.64375 228.21216 52.64375 229.49341Q52.64375 231.00903 52.33125 231.93091Q52.034374 232.85278 51.409374 233.36841Q50.8 233.86841 49.846874 233.86841Q48.6125 233.86841 47.89375 232.97778Q47.05 231.91528 47.05 229.49341ZM48.128124 229.49341Q48.128124 231.60278 48.628124 232.30591Q49.128124 233.00903 49.846874 233.00903Q50.58125 233.00903 51.065624 232.30591Q51.565624 231.60278 51.565624 229.49341Q51.565624 227.36841 51.065624 226.68091Q50.58125 225.97778 49.83125 225.97778Q49.1125 225.97778 48.675 226.58716Q48.128124 227.36841 48.128124 229.49341ZM54.05 229.49341Q54.05 227.96216 54.3625 227.04028Q54.675 226.10278 55.284374 225.60278Q55.909374 225.10278 56.846874 225.10278Q57.534374 225.10278 58.05 225.38403Q58.58125 225.66528 58.925 226.19653Q59.26875 226.71216 59.45625 227.46216Q59.64375 228.21216 59.64375 229.49341Q59.64375 231.00903 59.33125 231.93091Q59.034374 232.85278 58.409374 233.36841Q57.8 233.86841 56.846874 233.86841Q55.6125 233.86841 54.89375 232.97778Q54.05 231.91528 54.05 229.49341ZM55.128124 229.49341Q55.128124 231.60278 55.628124 232.30591Q56.128124 233.00903 56.846874 233.00903Q57.58125 233.00903 58.065624 232.30591Q58.565624 231.60278 58.565624 229.49341Q58.565624 227.36841 58.065624 226.68091Q57.58125 225.97778 56.83125 225.97778Q56.1125 225.97778 55.675 226.58716Q55.128124 227.36841 55.128124 229.49341Z" fill-rule="nonzero"/><path fill="#000000" d="M23.01875 163.00555L21.971874 163.00555L21.971874 156.2868Q21.58125 156.64618 20.95625 157.02118Q20.346874 157.38055 19.8625 157.55243L19.8625 156.5368Q20.7375 156.11493 21.39375 155.5368Q22.065624 154.94305 22.346874 154.38055L23.01875 154.38055L23.01875 163.00555ZM26.05 158.77118Q26.05 157.23993 26.3625 156.31805Q26.675 155.38055 27.284374 154.88055Q27.909374 154.38055 28.846874 154.38055Q29.534374 154.38055 30.05 154.6618Q30.58125 154.94305 30.925 155.4743Q31.26875 155.98993 31.45625 156.73993Q31.64375 157.48993 31.64375 158.77118Q31.64375 160.2868 31.33125 161.20868Q31.034374 162.13055 30.409374 162.64618Q29.8 163.14618 28.846874 163.14618Q27.6125 163.14618 26.89375 162.25555Q26.05 161.19305 26.05 158.77118ZM27.128124 158.77118Q27.128124 160.88055 27.628124 161.58368Q28.128124 162.2868 28.846874 162.2868Q29.58125 162.2868 30.065624 161.58368Q30.565624 160.88055 30.565624 158.77118Q30.565624 156.64618 30.065624 155.95868Q29.58125 155.25555 28.83125 155.25555Q28.1125 155.25555 27.675 155.86493Q27.128124 156.64618 27.128124 158.77118ZM33.05 158.77118Q33.05 157.23993 33.3625 156.31805Q33.675 155.38055 34.284374 154.88055Q34.909374 154.38055 35.846874 154.38055Q36.534374 154.38055 37.05 154.6618Q37.58125 154.94305 37.925 155.4743Q38.26875 155.98993 38.45625 156.73993Q38.64375 157.48993 38.64375 158.77118Q38.64375 160.2868 38.33125 161.20868Q38.034374 162.13055 37.409374 162.64618Q36.8 163.14618 35.846874 163.14618Q34.6125 163.14618 33.89375 162.25555Q33.05 161.19305 33.05 158.77118ZM34.128124 158.77118Q34.128124 160.88055 34.628124 161.58368Q35.128124 162.2868 35.846874 162.2868Q36.58125 162.2868 37.065624 161.58368Q37.565624 160.88055 37.565624 158.77118Q37.565624 156.64618 37.065624 155.95868Q36.58125 155.25555 35.83125 155.25555Q35.1125 155.25555 34.675 155.86493Q34.128124 156.64618 34.128124 158.77118ZM40.05 158.77118Q40.05 157.23993 40.3625 156.31805Q40.675 155.38055 41.284374 154.88055Q41.909374 154.38055 42.846874 154.38055Q43.534374 154.38055 44.05 154.6618Q44.58125 154.94305 44.925 155.4743Q45.26875 155.98993 45.45625 156.73993Q45.64375 157.48993 45.64375 158.77118Q45.64375 160.2868 45.33125 161.20868Q45.034374 162.13055 44.409374 162.64618Q43.8 163.14618 42.846874 163.14618Q41.6125 163.14618 40.89375 162.25555Q40.05 161.19305 40.05 158.77118ZM41.128124 158.77118Q41.128124 160.88055 41.628124 161.58368Q42.128124 162.2868 42.846874 162.2868Q43.58125 162.2868 44.065624 161.58368Q44.565624 160.88055 44.565624 158.77118Q44.565624 156.64618 44.065624 155.95868Q43.58125 155.25555 42.83125 155.25555Q42.1125 155.25555 41.675 155.86493Q41.128124 156.64618 41.128124 158.77118ZM47.05 158.77118Q47.05 157.23993 47.3625 156.31805Q47.675 155.38055 48.284374 154.88055Q48.909374 154.38055 49.846874 154.38055Q50.534374 154.38055 51.05 154.6618Q51.58125 154.94305 51.925 155.4743Q52.26875 155.98993 52.45625 156.73993Q52.64375 157.48993 52.64375 158.77118Q52.64375 160.2868 52.33125 161.20868Q52.034374 162.13055 51.409374 162.64618Q50.8 163.14618 49.846874 163.14618Q48.6125 163.14618 47.89375 162.25555Q47.05 161.19305 47.05 158.77118ZM48.128124 158.77118Q48.128124 160.88055 48.628124 161.58368Q49.128124 162.2868 49.846874 162.2868Q50.58125 162.2868 51.065624 161.58368Q51.565624 160.88055 51.565624 158.77118Q51.565624 156.64618 51.065624 155.95868Q50.58125 155.25555 49.83125 155.25555Q49.1125 155.25555 48.675 155.86493Q48.128124 156.64618 48.128124 158.77118ZM54.05 158.77118Q54.05 157.23993 54.3625 156.31805Q54.675 155.38055 55.284374 154.88055Q55.909374 154.38055 56.846874 154.38055Q57.534374 154.38055 58.05 154.6618Q58.58125 154.94305 58.925 155.4743Q59.26875 155.98993 59.45625 156.73993Q59.64375 157.48993 59.64375 158.77118Q59.64375 160.2868 59.33125 161.20868Q59.034374 162.13055 58.409374 162.64618Q57.8 163.14618 56.846874 163.14618Q55.6125 163.14618 54.89375 162.25555Q54.05 161.19305 54.05 158.77118ZM55.128124 158.77118Q55.128124 160.88055 55.628124 161.58368Q56.128124 162.2868 56.846874 162.2868Q57.58125 162.2868 58.065624 161.58368Q58.565624 160.88055 58.565624 158.77118Q58.565624 156.64618 58.065624 155.95868Q57.58125 155.25555 56.83125 155.25555Q56.1125 155.25555 55.675 155.86493Q55.128124 156.64618 55.128124 158.77118Z" fill-rule="nonzero"/><path fill="#000000" d="M23.01875 92.28333L21.971874 92.28333L21.971874 85.56458Q21.58125 85.92396 20.95625 86.29896Q20.346874 86.65833 19.8625 86.83021L19.8625 85.81458Q20.7375 85.39271 21.39375 84.81458Q22.065624 84.22083 22.346874 83.65833L23.01875 83.65833L23.01875 92.28333ZM26.05 90.03333L27.159374 89.93958Q27.284374 90.75208 27.721874 91.15833Q28.175 91.56458 28.815624 91.56458Q29.565624 91.56458 30.096874 90.98646Q30.628124 90.40833 30.628124 89.47083Q30.628124 88.56458 30.1125 88.04896Q29.6125 87.51771 28.784374 87.51771Q28.284374 87.51771 27.8625 87.75208Q27.45625 87.98646 27.221874 88.34583L26.2375 88.22083L27.065624 83.81458L31.346874 83.81458L31.346874 84.81458L27.909374 84.81458L27.45625 87.12708Q28.221874 86.58021 29.065624 86.58021Q30.190624 86.58021 30.95625 87.36146Q31.7375 88.14271 31.7375 89.37708Q31.7375 90.53333 31.065624 91.39271Q30.2375 92.42396 28.815624 92.42396Q27.64375 92.42396 26.89375 91.76771Q26.159374 91.11146 26.05 90.03333ZM33.05 88.04896Q33.05 86.51771 33.3625 85.59583Q33.675 84.65833 34.284374 84.15833Q34.909374 83.65833 35.846874 83.65833Q36.534374 83.65833 37.05 83.93958Q37.58125 84.22083 37.925 84.75208Q38.26875 85.26771 38.45625 86.01771Q38.64375 86.76771 38.64375 88.04896Q38.64375 89.56458 38.33125 90.48646Q38.034374 91.40833 37.409374 91.92396Q36.8 92.42396 35.846874 92.42396Q34.6125 92.42396 33.89375 91.53333Q33.05 90.47083 33.05 88.04896ZM34.128124 88.04896Q34.128124 90.15833 34.628124 90.86146Q35.128124 91.56458 35.846874 91.56458Q36.58125 91.56458 37.065624 90.86146Q37.565624 90.15833 37.565624 88.04896Q37.565624 85.92396 37.065624 85.23646Q36.58125 84.53333 35.83125 84.53333Q35.1125 84.53333 34.675 85.14271Q34.128124 85.92396 34.128124 88.04896ZM40.05 88.04896Q40.05 86.51771 40.3625 85.59583Q40.675 84.65833 41.284374 84.15833Q41.909374 83.65833 42.846874 83.65833Q43.534374 83.65833 44.05 83.93958Q44.58125 84.22083 44.925 84.75208Q45.26875 85.26771 45.45625 86.01771Q45.64375 86.76771 45.64375 88.04896Q45.64375 89.56458 45.33125 90.48646Q45.034374 91.40833 44.409374 91.92396Q43.8 92.42396 42.846874 92.42396Q41.6125 92.42396 40.89375 91.53333Q40.05 90.47083 40.05 88.04896ZM41.128124 88.04896Q41.128124 90.15833 41.628124 90.86146Q42.128124 91.56458 42.846874 91.56458Q43.58125 91.56458 44.065624 90.86146Q44.565624 90.15833 44.565624 88.04896Q44.565624 85.92396 44.065624 85.23646Q43.58125 84.53333 42.83125 84.53333Q42.1125 84.53333 41.675 85.14271Q41.128124 85.92396 41.128124 88.04896ZM47.05 88.04896Q47.05 86.51771 47.3625 85.59583Q47.675 84.65833 48.284374 84.15833Q48.909374 83.65833 49.846874 83.65833Q50.534374 83.65833 51.05 83.93958Q51.58125 84.22083 51.925 84.75208Q52.26875 85.26771 52.45625 86.01771Q52.64375 86.76771 52.64375 88.04896Q52.64375 89.56458 52.33125 90.48646Q52.034374 91.40833 51.409374 91.92396Q50.8 92.42396 49.846874 92.42396Q48.6125 92.42396 47.89375 91.53333Q47.05 90.47083 47.05 88.04896ZM48.128124 88.04896Q48.128124 90.15833 48.628124 90.86146Q49.128124 91.56458 49.846874 91.56458Q50.58125 91.56458 51.065624 90.86146Q51.565624 90.15833 51.565624 88.04896Q51.565624 85.92396 51.065624 85.23646Q50.58125 84.53333 49.83125 84.53333Q49.1125 84.53333 48.675 85.14271Q48.128124 85.92396 48.128124 88.04896ZM54.05 88.04896Q54.05 86.51771 54.3625 85.59583Q54.675 84.65833 55.284374 84.15833Q55.909374 83.65833 56.846874 83.65833Q57.534374 83.65833 58.05 83.93958Q58.58125 84.22083 58.925 84.75208Q59.26875 85.26771 59.45625 86.01771Q59.64375 86.76771 59.64375 88.04896Q59.64375 89.56458 59.33125 90.48646Q59.034374 91.40833 58.409374 91.92396Q57.8 92.42396 56.846874 92.42396Q55.6125 92.42396 54.89375 91.53333Q54.05 90.47083 54.05 88.04896ZM55.128124 88.04896Q55.128124 90.15833 55.628124 90.86146Q56.128124 91.56458 56.846874 91.56458Q57.58125 91.56458 58.065624 90.86146Q58.565624 90.15833 58.565624 88.04896Q58.565624 85.92396 58.065624 85.23646Q57.58125 84.53333 56.83125 84.53333Q56.1125 84.53333 55.675 85.14271Q55.128124 85.92396 55.128124 88.04896Z" fill-rule="nonzero"/><path fill="#000000" d="M83.516075 308.45Q82.234825 308.45 81.484825 309.16876Q80.81295 309.8094 80.81295 310.71564Q80.81295 311.6375 81.484825 312.27814Q82.234825 313.0125 83.516075 313.0125Q84.766075 313.0125 85.50045 312.27814Q86.172325 311.6375 86.172325 310.71564Q86.172325 309.8094 85.50045 309.16876Q84.766075 308.45 83.516075 308.45ZM83.516075 309.0594Q84.453575 309.0594 85.00045 309.59064Q85.50045 310.0594 85.50045 310.71564Q85.50045 311.40314 85.00045 311.8719Q84.453575 312.40314 83.516075 312.40314Q82.547325 312.40314 82.00045 311.8719Q81.516075 311.40314 81.516075 310.71564Q81.516075 310.04376 82.00045 309.59064Q82.547325 309.0594 83.516075 309.0594ZM89.109825 313.0125L89.109825 308.5594Q89.109825 308.40314 88.984825 308.325Q88.891075 308.23126 88.75045 308.23126Q88.5942 308.23126 88.50045 308.325Q88.4067 308.41876 88.4067 308.5594L88.4067 313.0125Q88.4067 313.16876 88.50045 313.2625Q88.5942 313.34064 88.75045 313.34064Q88.891075 313.34064 88.984825 313.2625Q89.109825 313.16876 89.109825 313.0125ZM88.0317 313.98126L81.81295 313.98126Q81.453575 313.98126 81.4692 314.27814Q81.4692 314.575 81.81295 314.575L87.93795 314.575Q88.18795 314.575 88.297325 314.65314Q88.4067 314.7469 88.4067 314.95L88.4067 315.2625Q88.4067 315.4344 88.266075 315.4969Q88.172325 315.575 87.953575 315.575L82.37545 315.575Q81.984825 315.575 81.75045 315.79376Q81.50045 316.0125 81.50045 316.40314L81.50045 317.09064Q81.50045 317.46564 81.75045 317.7Q82.00045 317.91876 82.4067 317.91876L89.0942 317.91876Q89.25045 317.91876 89.328575 317.825Q89.4067 317.73126 89.4067 317.6219Q89.391075 317.4969 89.31295 317.40314Q89.203575 317.325 89.047325 317.325L82.5942 317.325Q82.391075 317.325 82.297325 317.2469Q82.18795 317.1844 82.18795 316.9969L82.18795 316.54376Q82.18795 316.35626 82.266075 316.2625Q82.37545 316.16876 82.609825 316.16876L88.172325 316.16876Q88.5942 316.16876 88.8442 315.95Q89.109825 315.73126 89.109825 315.35626L89.109825 314.85626Q89.109825 314.45 88.828575 314.21564Q88.547325 313.98126 88.0317 313.98126ZM97.25045 310.91876L97.25045 312.77814Q97.25045 313.0125 97.0942 313.10626Q96.9692 313.21564 96.68795 313.21564L94.12545 313.21564Q93.859825 313.21564 93.766075 313.1219Q93.6567 313.02814 93.6567 312.77814L93.6567 310.91876L97.25045 310.91876ZM97.25045 308.85626L97.25045 310.325L93.6567 310.325L93.6567 308.91876Q93.6567 308.73126 93.5317 308.6219Q93.43795 308.52814 93.297325 308.52814Q93.1567 308.52814 93.06295 308.6375Q92.953575 308.7469 92.953575 308.9344L92.953575 312.91876Q92.953575 313.34064 93.234825 313.59064Q93.516075 313.8094 93.93795 313.8094L96.891075 313.8094Q97.3442 313.8094 97.62545 313.5594Q97.922325 313.3094 97.922325 312.91876L97.922325 308.8719Q97.922325 308.52814 97.578575 308.52814Q97.25045 308.52814 97.25045 308.85626ZM100.766075 311.77814L100.766075 308.5594Q100.766075 308.23126 100.4067 308.23126Q100.078575 308.23126 100.078575 308.5594L100.078575 315.04376Q100.078575 315.21564 100.172325 315.3094Q100.266075 315.40314 100.4067 315.40314Q100.547325 315.40314 100.641075 315.3094Q100.766075 315.21564 100.766075 315.04376L100.766075 312.3719L102.047325 312.3719Q102.3442 312.3719 102.3442 312.075Q102.3442 311.77814 102.047325 311.77814L100.766075 311.77814ZM94.2192 315.15314Q94.2192 314.95 94.109825 314.84064Q94.016075 314.7469 93.87545 314.7469Q93.734825 314.7469 93.641075 314.84064Q93.5317 314.95 93.5317 315.15314L93.5317 316.7Q93.5317 317.1844 93.828575 317.48126Q94.141075 317.7625 94.68795 317.7625L100.766075 317.7625Q101.06295 317.7625 101.06295 317.46564Q101.06295 317.16876 100.766075 317.16876L94.7817 317.16876Q94.453575 317.16876 94.3442 317.0594Q94.2192 316.95 94.2192 316.6219L94.2192 315.15314ZM111.984825 308.41876L105.547325 308.41876Q105.234825 308.41876 105.234825 308.73126Q105.234825 309.02814 105.547325 309.02814L111.87545 309.02814Q112.203575 309.02814 112.391075 309.1844Q112.5942 309.35626 112.5942 309.6375L112.5942 310.1844Q112.5942 310.8094 112.4692 311.27814Q112.359825 311.73126 112.078575 312.2625L112.734825 312.2625Q113.016075 311.79376 113.141075 311.325Q113.297325 310.8094 113.297325 310.2L113.297325 309.575Q113.297325 309.02814 112.922325 308.71564Q112.578575 308.41876 111.984825 308.41876ZM113.87545 312.1219L104.7817 312.1219Q104.43795 312.1219 104.43795 312.41876Q104.4067 312.73126 104.7192 312.73126L108.984825 312.73126L108.984825 314.04376Q108.984825 314.21564 109.0942 314.3094Q109.18795 314.3875 109.328575 314.3875Q109.453575 314.3875 109.547325 314.3094Q109.672325 314.2 109.672325 314.04376L109.672325 312.73126L113.891075 312.73126Q114.047325 312.73126 114.141075 312.6375Q114.234825 312.54376 114.234825 312.41876Q114.234825 312.3094 114.141075 312.21564Q114.047325 312.1219 113.87545 312.1219ZM112.12545 314.90314L105.56295 314.90314Q105.234825 314.90314 105.234825 315.2Q105.234825 315.4969 105.56295 315.4969L112.0942 315.4969Q112.359825 315.4969 112.484825 315.60626Q112.5942 315.7 112.5942 315.91876L112.5942 317.6844Q112.5942 317.85626 112.68795 317.96564Q112.7817 318.0594 112.93795 318.0594Q113.078575 318.0594 113.172325 317.96564Q113.297325 317.85626 113.297325 317.6844L113.297325 315.90314Q113.297325 315.40314 112.984825 315.15314Q112.68795 314.90314 112.12545 314.90314ZM124.9692 308.5594L118.547325 308.5594Q117.984825 308.5594 117.6567 308.8719Q117.37545 309.1844 117.37545 309.73126L117.37545 312.52814Q117.37545 312.9969 117.6567 313.27814Q117.953575 313.575 118.484825 313.575L125.141075 313.575Q125.43795 313.575 125.422325 313.27814Q125.422325 312.98126 125.109825 312.98126L118.547325 312.98126Q118.2817 312.98126 118.172325 312.8719Q118.078575 312.77814 118.078575 312.5594L118.078575 309.59064Q118.078575 309.35626 118.18795 309.2625Q118.31295 309.16876 118.56295 309.16876L125.016075 309.16876Q125.1567 309.16876 125.2192 309.0594Q125.297325 308.98126 125.297325 308.85626Q125.2817 308.73126 125.203575 308.65314Q125.109825 308.5594 124.9692 308.5594ZM120.984825 314.21564L120.984825 316.6375L116.7817 316.6375Q116.62545 316.6375 116.5317 316.71564Q116.43795 316.8094 116.43795 316.9344Q116.422325 317.04376 116.484825 317.1375Q116.56295 317.23126 116.68795 317.23126L125.891075 317.23126Q126.047325 317.23126 126.141075 317.1375Q126.234825 317.04376 126.234825 316.9344Q126.234825 316.8094 126.141075 316.71564Q126.047325 316.6375 125.87545 316.6375L121.672325 316.6375L121.672325 314.2625Q121.672325 314.09064 121.547325 313.9969Q121.453575 313.90314 121.328575 313.90314Q121.18795 313.90314 121.0942 313.98126Q120.984825 314.0594 120.984825 314.21564Z" fill-rule="nonzero"/><path fill="#000000" d="M166.16696 308.60626L160.83884 308.60626Q160.51071 308.60626 160.51071 308.8875Q160.51071 309.2 160.83884 309.2L163.15134 309.2L163.15134 311.10626Q163.15134 312.9344 162.37009 314.45Q161.62009 315.91876 160.43259 316.52814Q160.27634 316.60626 160.22946 316.7469Q160.19821 316.8719 160.27634 316.9969Q160.32321 317.1219 160.44821 317.16876Q160.57321 317.23126 160.71384 317.15314Q161.69821 316.66876 162.47946 315.4969Q163.26071 314.3719 163.49509 313.1375Q163.69821 314.325 164.49509 315.4969Q165.29196 316.65314 166.22946 317.15314Q166.40134 317.2469 166.55759 317.2Q166.69821 317.16876 166.76071 317.04376Q166.82321 316.91876 166.79196 316.77814Q166.74509 316.6375 166.60446 316.5594Q165.37009 315.8719 164.62009 314.41876Q163.83884 312.91876 163.83884 311.09064L163.83884 309.2L166.16696 309.2Q166.46384 309.2 166.46384 308.8875Q166.46384 308.60626 166.16696 308.60626ZM168.66696 317.6844L168.66696 308.5594Q168.66696 308.41876 168.54196 308.325Q168.44821 308.2469 168.30759 308.2469Q168.15134 308.2469 168.05759 308.325Q167.96384 308.41876 167.96384 308.5594L167.96384 317.6844Q167.96384 317.85626 168.05759 317.95Q168.15134 318.04376 168.30759 318.04376Q168.44821 318.04376 168.54196 317.95Q168.66696 317.85626 168.66696 317.6844ZM176.80759 310.59064L176.80759 312.2469Q176.80759 312.4969 176.66696 312.59064Q176.54196 312.7 176.24509 312.7L173.68259 312.7Q173.43259 312.7 173.32321 312.59064Q173.21384 312.4969 173.21384 312.2469L173.21384 310.59064L176.80759 310.59064ZM176.80759 308.79376L176.80759 309.98126L173.21384 309.98126L173.21384 308.825Q173.21384 308.65314 173.08884 308.54376Q172.99509 308.46564 172.85446 308.46564Q172.71384 308.46564 172.62009 308.5594Q172.51071 308.65314 172.51071 308.84064L172.51071 312.35626Q172.51071 312.79376 172.79196 313.04376Q173.07321 313.29376 173.52634 313.29376L176.44821 313.29376Q176.88571 313.29376 177.16696 313.04376Q177.47946 312.77814 177.47946 312.34064L177.47946 308.79376Q177.47946 308.6219 177.37009 308.54376Q177.27634 308.46564 177.13571 308.46564Q176.99509 308.46564 176.90134 308.54376Q176.80759 308.6219 176.80759 308.79376ZM180.32321 311.075L180.32321 308.54376Q180.32321 308.23126 179.96384 308.23126Q179.63571 308.23126 179.63571 308.5594L179.63571 313.95Q179.63571 314.10626 179.72946 314.21564Q179.82321 314.29376 179.96384 314.29376Q180.10446 314.29376 180.19821 314.21564Q180.32321 314.1219 180.32321 313.95L180.32321 311.66876L181.62009 311.66876Q181.74509 311.66876 181.83884 311.575Q181.90134 311.48126 181.90134 311.3719Q181.88571 311.2469 181.80759 311.15314Q181.72946 311.075 181.57321 311.075L180.32321 311.075ZM176.71384 314.4969Q174.82321 314.4969 173.82321 315.02814Q172.90134 315.4969 172.90134 316.29376Q172.90134 317.075 173.82321 317.54376Q174.82321 318.075 176.71384 318.075Q178.58884 318.075 179.58884 317.54376Q180.51071 317.075 180.51071 316.29376Q180.51071 315.4969 179.58884 315.02814Q178.58884 314.4969 176.71384 314.4969ZM176.71384 315.10626Q178.26071 315.10626 179.07321 315.4344Q179.82321 315.7469 179.82321 316.29376Q179.82321 316.825 179.07321 317.1375Q178.26071 317.48126 176.71384 317.48126Q175.15134 317.48126 174.33884 317.1375Q173.58884 316.825 173.58884 316.29376Q173.58884 315.7469 174.33884 315.4344Q175.13571 315.10626 176.71384 315.10626ZM192.52634 308.5594L186.10446 308.5594Q185.54196 308.5594 185.21384 308.8719Q184.93259 309.1844 184.93259 309.73126L184.93259 312.52814Q184.93259 312.9969 185.21384 313.27814Q185.51071 313.575 186.04196 313.575L192.69821 313.575Q192.99509 313.575 192.97946 313.27814Q192.97946 312.98126 192.66696 312.98126L186.10446 312.98126Q185.83884 312.98126 185.72946 312.8719Q185.63571 312.77814 185.63571 312.5594L185.63571 309.59064Q185.63571 309.35626 185.74509 309.2625Q185.87009 309.16876 186.12009 309.16876L192.57321 309.16876Q192.71384 309.16876 192.77634 309.0594Q192.85446 308.98126 192.85446 308.85626Q192.83884 308.73126 192.76071 308.65314Q192.66696 308.5594 192.52634 308.5594ZM188.54196 314.21564L188.54196 316.6375L184.33884 316.6375Q184.18259 316.6375 184.08884 316.71564Q183.99509 316.8094 183.99509 316.9344Q183.97946 317.04376 184.04196 317.1375Q184.12009 317.23126 184.24509 317.23126L193.44821 317.23126Q193.60446 317.23126 193.69821 317.1375Q193.79196 317.04376 193.79196 316.9344Q193.79196 316.8094 193.69821 316.71564Q193.60446 316.6375 193.43259 316.6375L189.22946 316.6375L189.22946 314.2625Q189.22946 314.09064 189.10446 313.9969Q189.01071 313.90314 188.88571 313.90314Q188.74509 313.90314 188.65134 313.98126Q188.54196 314.0594 188.54196 314.21564Z" fill-rule="nonzero"/><path fill="#000000" d="M217.5991 311.9344L224.2241 311.9344Q224.5366 311.9344 224.5366 311.6375Q224.52098 311.34064 224.2241 311.34064L217.70848 311.34064Q217.42723 311.34064 217.30223 311.23126Q217.19286 311.1219 217.19286 310.8719L217.19286 310.45L224.08348 310.45Q224.4116 310.45 224.4116 310.15314Q224.4116 309.85626 224.06786 309.85626L217.19286 309.85626L217.19286 309.3719Q217.19286 309.16876 217.33348 309.075Q217.4741 308.98126 217.7241 308.98126L224.2241 308.98126Q224.36473 308.98126 224.45848 308.8875Q224.5366 308.79376 224.5366 308.66876Q224.5366 308.5594 224.44286 308.46564Q224.3491 308.3719 224.19286 308.3719L217.5991 308.3719Q217.0991 308.3719 216.7866 308.65314Q216.48973 308.9344 216.48973 309.35626L216.48973 310.9344Q216.48973 311.3719 216.77098 311.65314Q217.08348 311.9344 217.5991 311.9344ZM224.98973 312.96564L215.89598 312.96564Q215.55223 312.96564 215.55223 313.2469Q215.55223 313.52814 215.88036 313.52814L225.0366 313.52814Q225.17723 313.52814 225.27098 313.4344Q225.3491 313.35626 225.3491 313.2469Q225.3491 313.1219 225.25536 313.04376Q225.1616 312.96564 224.98973 312.96564ZM223.23973 314.90314L216.67723 314.90314Q216.3491 314.90314 216.3491 315.2Q216.3491 315.4969 216.67723 315.4969L223.20848 315.4969Q223.4741 315.4969 223.5991 315.60626Q223.70848 315.7 223.70848 315.91876L223.70848 317.6844Q223.70848 317.85626 223.80223 317.96564Q223.89598 318.0594 224.05223 318.0594Q224.19286 318.0594 224.2866 317.96564Q224.4116 317.85626 224.4116 317.6844L224.4116 315.90314Q224.4116 315.40314 224.0991 315.15314Q223.80223 314.90314 223.23973 314.90314ZM232.36473 310.4344L232.36473 311.95Q232.36473 312.2 232.2241 312.3094Q232.0991 312.41876 231.80223 312.41876L229.23973 312.41876Q228.98973 312.41876 228.88036 312.3094Q228.77098 312.2 228.77098 311.95L228.77098 310.4344L232.36473 310.4344ZM232.36473 308.79376L232.36473 309.825L228.77098 309.825L228.77098 308.825Q228.77098 308.65314 228.64598 308.54376Q228.55223 308.46564 228.4116 308.46564Q228.27098 308.46564 228.17723 308.5594Q228.06786 308.65314 228.06786 308.84064L228.06786 312.04376Q228.06786 312.4969 228.3491 312.77814Q228.63036 313.0125 229.08348 313.0125L232.00536 313.0125Q232.44286 313.0125 232.7241 312.7625Q233.0366 312.4969 233.0366 312.02814L233.0366 308.79376Q233.0366 308.6219 232.92723 308.54376Q232.83348 308.46564 232.69286 308.46564Q232.55223 308.46564 232.45848 308.54376Q232.36473 308.6219 232.36473 308.79376ZM236.2241 313.0125L236.2241 308.5594Q236.2241 308.40314 236.0991 308.325Q236.00536 308.23126 235.86473 308.23126Q235.70848 308.23126 235.61473 308.325Q235.52098 308.41876 235.52098 308.5594L235.52098 309.54376L233.50536 309.54376Q233.33348 309.54376 233.23973 309.6375Q233.1616 309.73126 233.1616 309.85626Q233.17723 309.96564 233.27098 310.0594Q233.38036 310.15314 233.56786 310.15314L235.52098 310.15314L235.52098 311.5125L233.5366 311.5125Q233.36473 311.5125 233.25536 311.59064Q233.17723 311.6844 233.17723 311.79376Q233.17723 311.91876 233.27098 312.0125Q233.36473 312.10626 233.55223 312.10626L235.52098 312.10626L235.52098 313.0125Q235.52098 313.16876 235.61473 313.2625Q235.70848 313.34064 235.86473 313.34064Q236.00536 313.34064 236.0991 313.2625Q236.2241 313.16876 236.2241 313.0125ZM235.14598 313.98126L228.92723 313.98126Q228.56786 313.98126 228.58348 314.27814Q228.58348 314.575 228.92723 314.575L235.05223 314.575Q235.30223 314.575 235.4116 314.65314Q235.52098 314.7469 235.52098 314.95L235.52098 315.2625Q235.52098 315.4344 235.38036 315.4969Q235.2866 315.575 235.06786 315.575L229.48973 315.575Q229.0991 315.575 228.86473 315.79376Q228.61473 316.0125 228.61473 316.40314L228.61473 317.09064Q228.61473 317.46564 228.86473 317.7Q229.11473 317.91876 229.52098 317.91876L236.20848 317.91876Q236.36473 317.91876 236.44286 317.825Q236.52098 317.73126 236.52098 317.6219Q236.50536 317.4969 236.42723 317.40314Q236.31786 317.325 236.1616 317.325L229.70848 317.325Q229.50536 317.325 229.4116 317.2469Q229.30223 317.1844 229.30223 316.9969L229.30223 316.54376Q229.30223 316.35626 229.38036 316.2625Q229.48973 316.16876 229.7241 316.16876L235.2866 316.16876Q235.70848 316.16876 235.95848 315.95Q236.2241 315.73126 236.2241 315.35626L236.2241 314.85626Q236.2241 314.45 235.94286 314.21564Q235.6616 313.98126 235.14598 313.98126ZM244.55223 308.60626L240.30223 308.60626Q239.9741 308.60626 239.9741 308.8875Q239.9741 309.2 240.2866 309.2L244.61473 309.2Q244.8491 309.2 244.98973 309.3094Q245.11473 309.4344 245.11473 309.6844L245.11473 309.96564Q245.11473 310.40314 245.00536 310.79376Q244.88036 311.325 244.55223 311.79376Q244.33348 312.09064 244.61473 312.2469Q244.89598 312.3875 245.13036 312.1219Q245.52098 311.65314 245.69286 310.95Q245.7866 310.4969 245.7866 310.0125L245.7866 309.6375Q245.7866 309.15314 245.4741 308.8875Q245.14598 308.60626 244.55223 308.60626ZM242.11473 311.09064L242.11473 313.2469L239.73973 313.29376Q239.58348 313.29376 239.50536 313.3719Q239.4116 313.46564 239.42723 313.575Q239.42723 313.7 239.52098 313.79376Q239.63036 313.8875 239.80223 313.8875Q241.64598 313.8875 243.58348 313.71564Q245.27098 313.54376 246.52098 313.325Q246.83348 313.2469 246.77098 312.98126Q246.70848 312.73126 246.3491 312.79376Q245.48973 312.96564 244.4741 313.0594Q243.64598 313.15314 242.80223 313.2L242.80223 311.09064Q242.80223 310.9344 242.69286 310.84064Q242.5991 310.7469 242.45848 310.7469Q242.31786 310.7469 242.2241 310.84064Q242.11473 310.9344 242.11473 311.09064ZM247.88036 311.3719L247.88036 308.5594Q247.88036 308.40314 247.75536 308.325Q247.6616 308.23126 247.52098 308.23126Q247.38036 308.23126 247.2866 308.325Q247.19286 308.41876 247.19286 308.5594L247.19286 314.075Q247.19286 314.23126 247.2866 314.34064Q247.38036 314.41876 247.52098 314.41876Q247.6616 314.41876 247.75536 314.34064Q247.88036 314.2469 247.88036 314.09064L247.88036 311.98126L249.17723 311.98126Q249.4741 311.98126 249.45848 311.66876Q249.45848 311.3719 249.1616 311.3719L247.88036 311.3719ZM244.27098 314.6375Q242.36473 314.6375 241.38036 315.1219Q240.45848 315.575 240.45848 316.35626Q240.45848 317.1219 241.38036 317.575Q242.36473 318.075 244.27098 318.075Q246.1616 318.075 247.14598 317.575Q248.06786 317.1219 248.06786 316.35626Q248.06786 315.575 247.14598 315.1219Q246.1616 314.6375 244.27098 314.6375ZM244.27098 315.21564Q245.83348 315.21564 246.63036 315.52814Q247.38036 315.825 247.38036 316.35626Q247.38036 316.8719 246.63036 317.15314Q245.83348 317.48126 244.27098 317.48126Q242.69286 317.48126 241.89598 317.15314Q241.14598 316.8719 241.14598 316.35626Q241.14598 315.825 241.89598 315.52814Q242.69286 315.21564 244.27098 315.21564ZM254.63036 308.45Q253.3491 308.45 252.5991 309.1844Q251.92723 309.8719 251.92723 310.8719Q251.92723 311.85626 252.5991 312.52814Q253.3491 313.2625 254.63036 313.2625Q255.89598 313.2625 256.61475 312.52814Q257.28662 311.85626 257.28662 310.8719Q257.28662 309.8719 256.61475 309.1844Q255.88036 308.45 254.63036 308.45ZM254.63036 309.0594Q255.58348 309.0594 256.11475 309.60626Q256.61475 310.10626 256.61475 310.8719Q256.61475 311.6219 256.11475 312.1219Q255.58348 312.6844 254.63036 312.6844Q253.6616 312.6844 253.11473 312.1219Q252.63036 311.6219 252.63036 310.8719Q252.63036 310.10626 253.11473 309.60626Q253.6616 309.0594 254.63036 309.0594ZM260.22412 313.23126L260.22412 308.5594Q260.22412 308.40314 260.09912 308.325Q260.00537 308.23126 259.86475 308.23126Q259.7085 308.23126 259.61475 308.325Q259.521 308.41876 259.521 308.5594L259.521 309.79376L257.50537 309.79376Q257.3335 309.79376 257.23975 309.8875Q257.16162 309.96564 257.16162 310.10626Q257.17725 310.21564 257.271 310.29376Q257.38037 310.40314 257.56787 310.40314L259.521 310.40314L259.521 311.825L257.53662 311.825Q257.36475 311.825 257.25537 311.91876Q257.17725 311.9969 257.17725 312.1219Q257.17725 312.2469 257.271 312.325Q257.36475 312.4344 257.55225 312.4344L259.521 312.4344L259.521 313.23126Q259.521 313.3875 259.61475 313.4969Q259.7085 313.59064 259.86475 313.59064Q260.00537 313.59064 260.09912 313.4969Q260.22412 313.3875 260.22412 313.23126ZM259.09912 314.7625L252.67723 314.7625Q252.3491 314.7625 252.3491 315.075Q252.3491 315.3719 252.67723 315.3719L259.03662 315.3719Q259.28662 315.3719 259.41162 315.48126Q259.521 315.575 259.521 315.79376L259.521 317.7Q259.521 317.85626 259.61475 317.96564Q259.7085 318.04376 259.86475 318.04376Q260.00537 318.04376 260.09912 317.96564Q260.22412 317.85626 260.22412 317.7L260.22412 315.77814Q260.22412 315.3094 259.92725 315.02814Q259.63037 314.7625 259.09912 314.7625ZM266.47412 308.84064Q266.47412 310.7469 265.84912 312.73126Q265.13037 315.0594 263.78662 316.54376Q263.66162 316.66876 263.66162 316.825Q263.66162 316.95 263.771 317.04376Q263.86475 317.1375 263.98975 317.1219Q264.13037 317.1219 264.23975 316.9969Q265.146 315.90314 265.72412 314.7Q266.271 313.575 266.69287 312.1219Q267.30225 312.90314 268.05225 314.41876Q268.66162 315.6375 269.11475 316.77814Q269.17725 316.95 269.31787 317.0125Q269.44287 317.09064 269.55225 317.04376Q269.69287 316.98126 269.73975 316.85626Q269.78662 316.71564 269.72412 316.52814Q269.30225 315.3719 268.56787 314.02814Q267.771 312.575 266.88037 311.41876Q266.98975 310.85626 267.06787 310.15314Q267.16162 309.41876 267.16162 308.84064Q267.16162 308.6844 267.05225 308.59064Q266.9585 308.4969 266.81787 308.4969Q266.67725 308.4969 266.5835 308.59064Q266.47412 308.6844 266.47412 308.84064ZM272.22412 317.6844L272.22412 308.5594Q272.22412 308.41876 272.09912 308.325Q272.00537 308.2469 271.86475 308.2469Q271.7085 308.2469 271.61475 308.325Q271.521 308.41876 271.521 308.5594L271.521 317.6844Q271.521 317.85626 271.61475 317.95Q271.7085 318.04376 271.86475 318.04376Q272.00537 318.04376 272.09912 317.95Q272.22412 317.85626 272.22412 317.6844ZM284.0835 308.5594L277.66162 308.5594Q277.09912 308.5594 276.771 308.8719Q276.48975 309.1844 276.48975 309.73126L276.48975 312.52814Q276.48975 312.9969 276.771 313.27814Q277.06787 313.575 277.59912 313.575L284.25537 313.575Q284.55225 313.575 284.53662 313.27814Q284.53662 312.98126 284.22412 312.98126L277.66162 312.98126Q277.396 312.98126 277.28662 312.8719Q277.19287 312.77814 277.19287 312.5594L277.19287 309.59064Q277.19287 309.35626 277.30225 309.2625Q277.42725 309.16876 277.67725 309.16876L284.13037 309.16876Q284.271 309.16876 284.3335 309.0594Q284.41162 308.98126 284.41162 308.85626Q284.396 308.73126 284.31787 308.65314Q284.22412 308.5594 284.0835 308.5594ZM280.09912 314.21564L280.09912 316.6375L275.896 316.6375Q275.73975 316.6375 275.646 316.71564Q275.55225 316.8094 275.55225 316.9344Q275.53662 317.04376 275.59912 317.1375Q275.67725 317.23126 275.80225 317.23126L285.00537 317.23126Q285.16162 317.23126 285.25537 317.1375Q285.34912 317.04376 285.34912 316.9344Q285.34912 316.8094 285.25537 316.71564Q285.16162 316.6375 284.98975 316.6375L280.78662 316.6375L280.78662 314.2625Q280.78662 314.09064 280.66162 313.9969Q280.56787 313.90314 280.44287 313.90314Q280.30225 313.90314 280.2085 313.98126Q280.09912 314.0594 280.09912 314.21564Z" fill-rule="nonzero"/><path fill="#000000" d="M316.03125 308.84064Q316.03125 310.7469 315.40625 312.73126Q314.6875 315.0594 313.34375 316.54376Q313.21875 316.66876 313.21875 316.825Q313.21875 316.95 313.32812 317.04376Q313.42188 317.1375 313.54688 317.1219Q313.6875 317.1219 313.79688 316.9969Q314.70312 315.90314 315.28125 314.7Q315.82812 313.575 316.25 312.1219Q316.85938 312.90314 317.60938 314.41876Q318.21875 315.6375 318.67188 316.77814Q318.73438 316.95 318.875 317.0125Q319.0 317.09064 319.10938 317.04376Q319.25 316.98126 319.29688 316.85626Q319.34375 316.71564 319.28125 316.52814Q318.85938 315.3719 318.125 314.02814Q317.32812 312.575 316.4375 311.41876Q316.54688 310.85626 316.625 310.15314Q316.71875 309.41876 316.71875 308.84064Q316.71875 308.6844 316.60938 308.59064Q316.51562 308.4969 316.375 308.4969Q316.23438 308.4969 316.14062 308.59064Q316.03125 308.6844 316.03125 308.84064ZM321.78125 317.6844L321.78125 308.5594Q321.78125 308.41876 321.65625 308.325Q321.5625 308.2469 321.42188 308.2469Q321.26562 308.2469 321.17188 308.325Q321.07812 308.41876 321.07812 308.5594L321.07812 317.6844Q321.07812 317.85626 321.17188 317.95Q321.26562 318.04376 321.42188 318.04376Q321.5625 318.04376 321.65625 317.95Q321.78125 317.85626 321.78125 317.6844ZM333.64062 308.5594L327.21875 308.5594Q326.65625 308.5594 326.32812 308.8719Q326.04688 309.1844 326.04688 309.73126L326.04688 312.52814Q326.04688 312.9969 326.32812 313.27814Q326.625 313.575 327.15625 313.575L333.8125 313.575Q334.10938 313.575 334.09375 313.27814Q334.09375 312.98126 333.78125 312.98126L327.21875 312.98126Q326.95312 312.98126 326.84375 312.8719Q326.75 312.77814 326.75 312.5594L326.75 309.59064Q326.75 309.35626 326.85938 309.2625Q326.98438 309.16876 327.23438 309.16876L333.6875 309.16876Q333.82812 309.16876 333.89062 309.0594Q333.96875 308.98126 333.96875 308.85626Q333.95312 308.73126 333.875 308.65314Q333.78125 308.5594 333.64062 308.5594ZM329.65625 314.21564L329.65625 316.6375L325.45312 316.6375Q325.29688 316.6375 325.20312 316.71564Q325.10938 316.8094 325.10938 316.9344Q325.09375 317.04376 325.15625 317.1375Q325.23438 317.23126 325.35938 317.23126L334.5625 317.23126Q334.71875 317.23126 334.8125 317.1375Q334.90625 317.04376 334.90625 316.9344Q334.90625 316.8094 334.8125 316.71564Q334.71875 316.6375 334.54688 316.6375L330.34375 316.6375L330.34375 314.2625Q330.34375 314.09064 330.21875 313.9969Q330.125 313.90314 330.0 313.90314Q329.85938 313.90314 329.76562 313.98126Q329.65625 314.0594 329.65625 314.21564Z" fill-rule="nonzero"/><path fill="#000000" d="M394.21338 308.41876L387.77588 308.41876Q387.46338 308.41876 387.46338 308.73126Q387.46338 309.02814 387.77588 309.02814L394.104 309.02814Q394.43213 309.02814 394.61963 309.1844Q394.82275 309.35626 394.82275 309.6375L394.82275 309.91876Q394.82275 310.66876 394.69775 311.15314Q394.5415 311.79376 394.13525 312.4344L394.83838 312.4344Q395.19775 311.85626 395.36963 311.2Q395.52588 310.6219 395.52588 309.91876L395.52588 309.575Q395.52588 309.02814 395.15088 308.71564Q394.80713 308.41876 394.21338 308.41876ZM396.104 312.27814L387.01025 312.27814Q386.6665 312.27814 386.6665 312.575Q386.63525 312.8719 386.94775 312.8719L391.21338 312.8719L391.21338 315.34064Q391.21338 315.4969 391.32275 315.60626Q391.4165 315.6844 391.55713 315.6844Q391.68213 315.6844 391.77588 315.59064Q391.90088 315.4969 391.90088 315.325L391.90088 312.8719L396.11963 312.8719Q396.46338 312.8719 396.46338 312.575Q396.44775 312.27814 396.104 312.27814ZM388.30713 315.16876Q388.30713 314.96564 388.18213 314.84064Q388.08838 314.7469 387.94775 314.7469Q387.7915 314.7469 387.69775 314.84064Q387.604 314.95 387.604 315.16876L387.604 316.73126Q387.604 317.1844 387.86963 317.48126Q388.13525 317.7625 388.604 317.7625L395.33838 317.7625Q395.65088 317.7625 395.65088 317.46564Q395.65088 317.16876 395.33838 317.16876L388.86963 317.16876Q388.5415 317.16876 388.4165 317.0594Q388.30713 316.95 388.30713 316.6219L388.30713 315.16876ZM407.19775 308.5594L400.77588 308.5594Q400.21338 308.5594 399.88525 308.8719Q399.604 309.1844 399.604 309.73126L399.604 312.52814Q399.604 312.9969 399.88525 313.27814Q400.18213 313.575 400.71338 313.575L407.36963 313.575Q407.6665 313.575 407.65088 313.27814Q407.65088 312.98126 407.33838 312.98126L400.77588 312.98126Q400.51025 312.98126 400.40088 312.8719Q400.30713 312.77814 400.30713 312.5594L400.30713 309.59064Q400.30713 309.35626 400.4165 309.2625Q400.5415 309.16876 400.7915 309.16876L407.24463 309.16876Q407.38525 309.16876 407.44775 309.0594Q407.52588 308.98126 407.52588 308.85626Q407.51025 308.73126 407.43213 308.65314Q407.33838 308.5594 407.19775 308.5594ZM403.21338 314.21564L403.21338 316.6375L399.01025 316.6375Q398.854 316.6375 398.76025 316.71564Q398.6665 316.8094 398.6665 316.9344Q398.65088 317.04376 398.71338 317.1375Q398.7915 317.23126 398.9165 317.23126L408.11963 317.23126Q408.27588 317.23126 408.36963 317.1375Q408.46338 317.04376 408.46338 316.9344Q408.46338 316.8094 408.36963 316.71564Q408.27588 316.6375 408.104 316.6375L403.90088 316.6375L403.90088 314.2625Q403.90088 314.09064 403.77588 313.9969Q403.68213 313.90314 403.55713 313.90314Q403.4165 313.90314 403.32275 313.98126Q403.21338 314.0594 403.21338 314.21564Z" fill-rule="nonzero"/><path fill="#000000" d="M455.7549 308.5594L449.33304 308.5594Q449.02054 308.5594 449.02054 308.84064Q449.02054 309.15314 449.33304 309.15314L455.66116 309.15314Q455.9893 309.15314 456.1768 309.3094Q456.3799 309.45 456.3799 309.7469L456.3799 312.325Q456.3799 313.16876 456.1299 313.90314Q455.91116 314.5125 455.59866 314.91876Q455.39554 315.1844 455.66116 315.40314Q455.91116 315.6219 456.14554 315.3875Q456.52054 314.9344 456.78616 314.09064Q457.08304 313.21564 457.08304 312.35626L457.08304 309.71564Q457.08304 309.16876 456.70804 308.84064Q456.34866 308.5594 455.7549 308.5594ZM452.0674 313.0125L452.0674 316.6375L448.5674 316.6375Q448.41116 316.6375 448.3174 316.71564Q448.22366 316.8094 448.22366 316.9344Q448.20804 317.04376 448.27054 317.1375Q448.34866 317.23126 448.47366 317.23126L457.6768 317.23126Q457.83304 317.23126 457.9268 317.1375Q458.02054 317.04376 458.02054 316.9344Q458.02054 316.8094 457.9268 316.71564Q457.83304 316.6375 457.66116 316.6375L452.7549 316.6375L452.7549 313.02814Q452.7549 312.8719 452.6299 312.77814Q452.53616 312.6844 452.39554 312.6844Q452.2549 312.6844 452.16116 312.77814Q452.0674 312.85626 452.0674 313.0125ZM464.77054 308.59064Q464.77054 309.54376 463.59866 310.2469Q462.47366 310.91876 460.9893 310.95Q460.8018 310.95 460.70804 311.04376Q460.6299 311.1375 460.64554 311.27814Q460.64554 311.41876 460.7393 311.4969Q460.84866 311.60626 461.02054 311.59064Q462.52054 311.48126 463.66116 310.91876Q464.77054 310.3875 465.1143 309.6844Q465.4893 310.40314 466.5674 310.91876Q467.72366 311.48126 469.22366 311.575Q469.3643 311.59064 469.47366 311.48126Q469.58304 311.40314 469.59866 311.2625Q469.59866 311.1375 469.52054 311.04376Q469.4268 310.9344 469.2549 310.9344Q467.7393 310.90314 466.6143 310.2469Q465.45804 309.54376 465.45804 308.60626Q465.45804 308.41876 465.33304 308.3094Q465.2393 308.21564 465.1143 308.21564Q464.97366 308.21564 464.8799 308.3094Q464.77054 308.41876 464.77054 308.59064ZM469.66116 312.96564L465.4424 312.96564L465.4424 311.7Q465.4424 311.5594 465.33304 311.46564Q465.2393 311.40314 465.09866 311.40314Q464.95804 311.40314 464.8643 311.48126Q464.77054 311.5594 464.77054 311.71564L464.77054 312.96564L460.5674 312.96564Q460.41116 312.96564 460.3174 313.0594Q460.22366 313.1375 460.22366 313.2469Q460.20804 313.3719 460.27054 313.45Q460.34866 313.54376 460.47366 313.54376L469.6768 313.54376Q470.02054 313.54376 470.02054 313.2469Q470.0049 312.96564 469.66116 312.96564ZM467.91116 314.90314L461.34866 314.90314Q461.02054 314.90314 461.02054 315.2Q461.02054 315.4969 461.34866 315.4969L467.8799 315.4969Q468.14554 315.4969 468.27054 315.60626Q468.3799 315.7 468.3799 315.91876L468.3799 317.6844Q468.3799 317.85626 468.47366 317.96564Q468.5674 318.0594 468.72366 318.0594Q468.8643 318.0594 468.95804 317.96564Q469.08304 317.85626 469.08304 317.6844L469.08304 315.90314Q469.08304 315.40314 468.77054 315.15314Q468.47366 314.90314 467.91116 314.90314ZM479.77054 308.41876L473.33304 308.41876Q473.02054 308.41876 473.02054 308.73126Q473.02054 309.02814 473.33304 309.02814L479.66116 309.02814Q479.9893 309.02814 480.1768 309.1844Q480.3799 309.35626 480.3799 309.6375L480.3799 310.1844Q480.3799 310.8094 480.2549 311.27814Q480.14554 311.73126 479.8643 312.2625L480.52054 312.2625Q480.8018 311.79376 480.9268 311.325Q481.08304 310.8094 481.08304 310.2L481.08304 309.575Q481.08304 309.02814 480.70804 308.71564Q480.3643 308.41876 479.77054 308.41876ZM481.66116 312.1219L472.5674 312.1219Q472.22366 312.1219 472.22366 312.41876Q472.1924 312.73126 472.5049 312.73126L476.77054 312.73126L476.77054 314.04376Q476.77054 314.21564 476.8799 314.3094Q476.97366 314.3875 477.1143 314.3875Q477.2393 314.3875 477.33304 314.3094Q477.45804 314.2 477.45804 314.04376L477.45804 312.73126L481.6768 312.73126Q481.83304 312.73126 481.9268 312.6375Q482.02054 312.54376 482.02054 312.41876Q482.02054 312.3094 481.9268 312.21564Q481.83304 312.1219 481.66116 312.1219ZM479.91116 314.90314L473.34866 314.90314Q473.02054 314.90314 473.02054 315.2Q473.02054 315.4969 473.34866 315.4969L479.8799 315.4969Q480.14554 315.4969 480.27054 315.60626Q480.3799 315.7 480.3799 315.91876L480.3799 317.6844Q480.3799 317.85626 480.47366 317.96564Q480.5674 318.0594 480.72366 318.0594Q480.8643 318.0594 480.95804 317.96564Q481.08304 317.85626 481.08304 317.6844L481.08304 315.90314Q481.08304 315.40314 480.77054 315.15314Q480.47366 314.90314 479.91116 314.90314ZM492.7549 308.5594L486.33304 308.5594Q485.77054 308.5594 485.4424 308.8719Q485.16116 309.1844 485.16116 309.73126L485.16116 312.52814Q485.16116 312.9969 485.4424 313.27814Q485.7393 313.575 486.27054 313.575L492.9268 313.575Q493.22366 313.575 493.20804 313.27814Q493.20804 312.98126 492.89554 312.98126L486.33304 312.98126Q486.0674 312.98126 485.95804 312.8719Q485.8643 312.77814 485.8643 312.5594L485.8643 309.59064Q485.8643 309.35626 485.97366 309.2625Q486.09866 309.16876 486.34866 309.16876L492.8018 309.16876Q492.9424 309.16876 493.0049 309.0594Q493.08304 308.98126 493.08304 308.85626Q493.0674 308.73126 492.9893 308.65314Q492.89554 308.5594 492.7549 308.5594ZM488.77054 314.21564L488.77054 316.6375L484.5674 316.6375Q484.41116 316.6375 484.3174 316.71564Q484.22366 316.8094 484.22366 316.9344Q484.20804 317.04376 484.27054 317.1375Q484.34866 317.23126 484.47366 317.23126L493.6768 317.23126Q493.83304 317.23126 493.9268 317.1375Q494.02054 317.04376 494.02054 316.9344Q494.02054 316.8094 493.9268 316.71564Q493.83304 316.6375 493.66116 316.6375L489.45804 316.6375L489.45804 314.2625Q489.45804 314.09064 489.33304 313.9969Q489.2393 313.90314 489.1143 313.90314Q488.97366 313.90314 488.8799 313.98126Q488.77054 314.0594 488.77054 314.21564Z" fill-rule="nonzero"/><path fill="#000000" d="M537.8902 308.60626L534.42145 308.60626Q534.0933 308.60626 534.10895 308.8875Q534.10895 309.2 534.4371 309.2L537.9058 309.2Q538.1871 309.2 538.3277 309.325Q538.4683 309.45 538.4683 309.7L538.4683 311.075Q538.4683 313.54376 537.29645 314.90314Q536.2183 316.15314 534.2027 316.3719Q533.8746 316.3875 533.9058 316.6844Q533.92145 316.9969 534.2496 316.96564Q536.4058 316.825 537.7183 315.35626Q539.1402 313.79376 539.1402 311.09064L539.1402 309.71564Q539.1402 309.2 538.8121 308.90314Q538.4683 308.60626 537.8902 308.60626ZM542.4527 317.6844L542.4527 308.5594Q542.4527 308.41876 542.3277 308.325Q542.23395 308.2469 542.0933 308.2469Q541.9371 308.2469 541.8433 308.325Q541.7496 308.41876 541.7496 308.5594L541.7496 317.6844Q541.7496 317.85626 541.8433 317.95Q541.9371 318.04376 542.0933 318.04376Q542.23395 318.04376 542.3277 317.95Q542.4527 317.85626 542.4527 317.6844ZM551.3121 308.60626L547.4683 308.60626Q546.9058 308.60626 546.5777 308.9344Q546.29645 309.23126 546.29645 309.73126L546.29645 315.96564Q546.29645 316.48126 546.5933 316.8094Q546.9058 317.15314 547.48395 317.15314Q548.8433 317.15314 550.2808 316.95Q551.7652 316.73126 552.7496 316.3875Q552.9058 316.34064 552.9527 316.21564Q552.9996 316.10626 552.9527 315.98126Q552.9058 315.8719 552.7808 315.825Q552.6402 315.77814 552.48395 315.84064Q551.5308 316.1844 550.1871 316.3719Q548.8902 316.5594 547.5152 316.5594Q547.2027 316.5594 547.0933 316.3719Q546.9996 316.21564 546.9996 315.825L546.9996 312.73126L551.1246 312.73126Q551.4683 312.73126 551.4683 312.4344Q551.4683 312.1375 551.1246 312.1375L546.9996 312.1375L546.9996 309.73126Q546.9996 309.48126 547.0933 309.34064Q547.23395 309.2 547.48395 309.2L551.3277 309.2Q551.4996 309.2 551.5933 309.10626Q551.6871 309.0125 551.6871 308.8875Q551.6871 308.77814 551.5933 308.6844Q551.4996 308.60626 551.3121 308.60626ZM554.10895 312.85626L554.10895 308.5594Q554.10895 308.41876 553.98395 308.325Q553.8902 308.2469 553.7496 308.2469Q553.60895 308.2469 553.5152 308.325Q553.42145 308.41876 553.42145 308.5594L553.42145 317.71564Q553.42145 317.85626 553.5152 317.95Q553.60895 318.04376 553.7496 318.04376Q553.8902 318.04376 553.98395 317.95Q554.10895 317.85626 554.10895 317.71564L554.10895 313.4344L555.4058 313.4344Q555.6871 313.4344 555.6871 313.1375Q555.6871 312.85626 555.4058 312.85626L554.10895 312.85626Z" fill-rule="nonzero"/><path stroke="#4285f4" stroke-width="4.0" stroke-linecap="butt" d="M224.0 61.916668L236.0 61.916668" fill-rule="nonzero"/><path fill="#1a1a1a" d="M253.26562 58.791664L253.26562 59.93229Q253.26562 60.24479 253.125 60.354164Q253.0 60.49479 252.70312 60.49479L247.3125 60.49479Q246.98438 60.49479 246.85938 60.354164Q246.75 60.229164 246.75 59.93229L246.75 58.791664L253.26562 58.791664ZM253.26562 57.260414L253.26562 58.197914L246.75 58.197914L246.75 57.260414Q246.75 57.08854 246.625 56.99479Q246.53125 56.90104 246.39062 56.90104Q246.23438 56.90104 246.14062 56.99479Q246.04688 57.08854 246.04688 57.260414L246.04688 60.072914Q246.04688 60.49479 246.29688 60.77604Q246.57812 61.072914 247.04688 61.072914L252.82812 61.072914Q253.375 61.072914 253.67188 60.80729Q253.96875 60.541664 253.96875 60.08854L253.96875 57.24479Q253.96875 57.072914 253.84375 56.979164Q253.75 56.90104 253.60938 56.90104Q253.45312 56.90104 253.35938 56.99479Q253.26562 57.08854 253.26562 57.260414ZM254.57812 62.416664L245.45312 62.416664Q245.125 62.416664 245.10938 62.71354Q245.10938 63.02604 245.40625 63.02604L249.65625 63.02604L249.65625 66.166664Q249.65625 66.322914 249.76562 66.43229Q249.85938 66.510414 250.0 66.510414Q250.125 66.510414 250.21875 66.416664Q250.34375 66.322914 250.34375 66.15104L250.34375 63.02604L254.59375 63.02604Q254.90625 63.02604 254.90625 62.71354Q254.89062 62.416664 254.57812 62.416664ZM259.89062 57.24479Q259.89062 58.229164 259.29688 59.416664Q258.5625 60.86979 257.34375 61.71354Q257.17188 61.822914 257.15625 61.96354Q257.125 62.104164 257.20312 62.21354Q257.28125 62.322914 257.40625 62.33854Q257.54688 62.36979 257.6875 62.27604Q258.57812 61.572914 259.14062 60.86979Q259.64062 60.260414 260.09375 59.322914Q260.90625 59.93229 261.51562 60.541664Q262.15625 61.166664 262.71875 61.93229Q262.82812 62.072914 262.96875 62.08854Q263.10938 62.11979 263.21875 62.041664Q263.32812 61.947914 263.34375 61.822914Q263.35938 61.666664 263.25 61.52604Q262.59375 60.666664 261.98438 60.072914Q261.32812 59.46354 260.29688 58.71354Q260.4375 58.322914 260.48438 58.02604Q260.57812 57.61979 260.57812 57.24479Q260.57812 57.072914 260.46875 56.979164Q260.375 56.885414 260.23438 56.885414Q260.09375 56.885414 260.0 56.979164Q259.89062 57.072914 259.89062 57.24479ZM265.4375 59.541664L265.4375 57.010414Q265.4375 56.697914 265.07812 56.697914Q264.75 56.697914 264.75 57.02604L264.75 62.416664Q264.75 62.572914 264.84375 62.68229Q264.9375 62.760414 265.07812 62.760414Q265.21875 62.760414 265.3125 62.68229Q265.4375 62.58854 265.4375 62.416664L265.4375 60.135414L266.73438 60.135414Q266.85938 60.135414 266.95312 60.041664Q267.01562 59.947914 267.01562 59.83854Q267.0 59.71354 266.92188 59.61979Q266.84375 59.541664 266.6875 59.541664L265.4375 59.541664ZM261.82812 62.96354Q259.9375 62.96354 258.9375 63.49479Q258.01562 63.96354 258.01562 64.760414Q258.01562 65.541664 258.9375 66.010414Q259.9375 66.541664 261.82812 66.541664Q263.70312 66.541664 264.70312 66.010414Q265.625 65.541664 265.625 64.760414Q265.625 63.96354 264.70312 63.49479Q263.70312 62.96354 261.82812 62.96354ZM261.82812 63.572914Q263.375 63.572914 264.1875 63.90104Q264.9375 64.21354 264.9375 64.760414Q264.9375 65.291664 264.1875 65.604164Q263.375 65.947914 261.82812 65.947914Q260.26562 65.947914 259.45312 65.604164Q258.70312 65.291664 258.70312 64.760414Q258.70312 64.21354 259.45312 63.90104Q260.25 63.572914 261.82812 63.572914ZM275.28125 57.072914L269.95312 57.072914Q269.625 57.072914 269.625 57.354164Q269.625 57.666664 269.95312 57.666664L272.26562 57.666664L272.26562 59.572914Q272.26562 61.40104 271.48438 62.916664Q270.73438 64.385414 269.54688 64.99479Q269.39062 65.072914 269.34375 65.21354Q269.3125 65.33854 269.39062 65.46354Q269.4375 65.58854 269.5625 65.635414Q269.6875 65.697914 269.82812 65.61979Q270.8125 65.135414 271.59375 63.96354Q272.375 62.83854 272.60938 61.604164Q272.8125 62.791664 273.60938 63.96354Q274.40625 65.11979 275.34375 65.61979Q275.51562 65.71354 275.67188 65.666664Q275.8125 65.635414 275.875 65.510414Q275.9375 65.385414 275.90625 65.24479Q275.85938 65.104164 275.71875 65.02604Q274.48438 64.33854 273.73438 62.885414Q272.95312 61.385414 272.95312 59.55729L272.95312 57.666664L275.28125 57.666664Q275.57812 57.666664 275.57812 57.354164Q275.57812 57.072914 275.28125 57.072914ZM277.4375 61.322914L277.4375 57.02604Q277.4375 56.885414 277.3125 56.791664Q277.21875 56.71354 277.07812 56.71354Q276.9375 56.71354 276.84375 56.791664Q276.75 56.885414 276.75 57.02604L276.75 66.18229Q276.75 66.322914 276.84375 66.416664Q276.9375 66.510414 277.07812 66.510414Q277.21875 66.510414 277.3125 66.416664Q277.4375 66.322914 277.4375 66.18229L277.4375 61.90104L278.73438 61.90104Q279.01562 61.90104 279.01562 61.604164Q279.01562 61.322914 278.73438 61.322914L277.4375 61.322914ZM285.65625 57.072914Q285.65625 58.55729 284.4375 59.541664Q283.35938 60.416664 281.875 60.541664Q281.6875 60.541664 281.60938 60.65104Q281.53125 60.760414 281.53125 60.885414Q281.5625 61.010414 281.67188 61.104164Q281.78125 61.197914 281.95312 61.166664Q283.40625 60.96354 284.5625 60.197914Q285.65625 59.46354 286.0 58.52604Q286.35938 59.447914 287.45312 60.197914Q288.59375 60.96354 289.96875 61.166664Q290.17188 61.197914 290.3125 61.104164Q290.4375 61.010414 290.45312 60.885414Q290.48438 60.74479 290.40625 60.635414Q290.3125 60.52604 290.14062 60.510414Q288.64062 60.354164 287.57812 59.510414Q286.34375 58.541664 286.34375 57.072914Q286.34375 56.885414 286.21875 56.791664Q286.125 56.697914 286.0 56.697914Q285.85938 56.697914 285.76562 56.791664Q285.65625 56.885414 285.65625 57.072914ZM290.57812 62.416664L281.45312 62.416664Q281.125 62.416664 281.10938 62.71354Q281.10938 63.02604 281.40625 63.02604L285.65625 63.02604L285.65625 66.166664Q285.65625 66.322914 285.76562 66.43229Q285.85938 66.510414 286.0 66.510414Q286.125 66.510414 286.21875 66.416664Q286.34375 66.322914 286.34375 66.15104L286.34375 63.02604L290.59375 63.02604Q290.90625 63.02604 290.90625 62.71354Q290.89062 62.416664 290.57812 62.416664Z" fill-rule="nonzero"/><path stroke="#ea4335" stroke-width="4.0" stroke-linecap="butt" d="M308.0 61.916668L320.0 61.916668" fill-rule="nonzero"/><path fill="#1a1a1a" d="M332.03125 57.30729Q332.03125 59.21354 331.40625 61.197914Q330.6875 63.52604 329.34375 65.010414Q329.21875 65.135414 329.21875 65.291664Q329.21875 65.416664 329.32812 65.510414Q329.42188 65.604164 329.54688 65.58854Q329.6875 65.58854 329.79688 65.46354Q330.70312 64.36979 331.28125 63.166664Q331.82812 62.041664 332.25 60.58854Q332.85938 61.36979 333.60938 62.885414Q334.21875 64.104164 334.67188 65.24479Q334.73438 65.416664 334.875 65.479164Q335.0 65.55729 335.10938 65.510414Q335.25 65.447914 335.29688 65.322914Q335.34375 65.18229 335.28125 64.99479Q334.85938 63.83854 334.125 62.49479Q333.32812 61.041664 332.4375 59.885414Q332.54688 59.322914 332.625 58.61979Q332.71875 57.885414 332.71875 57.30729Q332.71875 57.15104 332.60938 57.05729Q332.51562 56.96354 332.375 56.96354Q332.23438 56.96354 332.14062 57.05729Q332.03125 57.15104 332.03125 57.30729ZM337.4375 61.322914L337.4375 57.02604Q337.4375 56.885414 337.3125 56.791664Q337.21875 56.71354 337.07812 56.71354Q336.9375 56.71354 336.84375 56.791664Q336.75 56.885414 336.75 57.02604L336.75 66.18229Q336.75 66.322914 336.84375 66.416664Q336.9375 66.510414 337.07812 66.510414Q337.21875 66.510414 337.3125 66.416664Q337.4375 66.322914 337.4375 66.18229L337.4375 61.90104L338.73438 61.90104Q339.01562 61.90104 339.01562 61.604164Q339.01562 61.322914 338.73438 61.322914L337.4375 61.322914ZM348.64062 57.02604L342.21875 57.02604Q341.90625 57.02604 341.90625 57.30729Q341.90625 57.61979 342.21875 57.61979L348.54688 57.61979Q348.875 57.61979 349.0625 57.77604Q349.26562 57.916664 349.26562 58.21354L349.26562 60.791664Q349.26562 61.635414 349.01562 62.36979Q348.79688 62.979164 348.48438 63.385414Q348.28125 63.65104 348.54688 63.86979Q348.79688 64.08854 349.03125 63.854164Q349.40625 63.40104 349.67188 62.55729Q349.96875 61.68229 349.96875 60.822914L349.96875 58.18229Q349.96875 57.635414 349.59375 57.30729Q349.23438 57.02604 348.64062 57.02604ZM344.95312 61.479164L344.95312 65.104164L341.45312 65.104164Q341.29688 65.104164 341.20312 65.18229Q341.10938 65.27604 341.10938 65.40104Q341.09375 65.510414 341.15625 65.604164Q341.23438 65.697914 341.35938 65.697914L350.5625 65.697914Q350.71875 65.697914 350.8125 65.604164Q350.90625 65.510414 350.90625 65.40104Q350.90625 65.27604 350.8125 65.18229Q350.71875 65.104164 350.54688 65.104164L345.64062 65.104164L345.64062 61.49479Q345.64062 61.33854 345.51562 61.24479Q345.42188 61.15104 345.28125 61.15104Q345.14062 61.15104 345.04688 61.24479Q344.95312 61.322914 344.95312 61.479164ZM357.26562 57.072914L353.75 57.072914Q353.42188 57.072914 353.4375 57.354164Q353.4375 57.666664 353.76562 57.666664L357.28125 57.666664Q357.53125 57.666664 357.65625 57.77604Q357.79688 57.90104 357.79688 58.15104L357.79688 58.71354Q357.79688 60.072914 356.70312 60.979164Q355.54688 61.916664 353.57812 62.05729Q353.39062 62.05729 353.29688 62.15104Q353.20312 62.24479 353.21875 62.36979Q353.23438 62.49479 353.32812 62.572914Q353.4375 62.65104 353.60938 62.65104Q355.78125 62.510414 357.14062 61.385414Q358.46875 60.30729 358.46875 58.729164L358.46875 58.104164Q358.46875 57.604164 358.14062 57.33854Q357.8125 57.072914 357.26562 57.072914ZM361.78125 63.49479L361.78125 57.072914Q361.78125 56.885414 361.65625 56.791664Q361.5625 56.71354 361.42188 56.71354Q361.26562 56.71354 361.17188 56.791664Q361.07812 56.885414 361.07812 57.072914L361.07812 59.74479L358.90625 59.74479Q358.73438 59.74479 358.64062 59.822914Q358.54688 59.916664 358.5625 60.02604Q358.5625 60.15104 358.67188 60.24479Q358.78125 60.33854 358.96875 60.33854L361.07812 60.33854L361.07812 63.49479Q361.07812 63.666664 361.17188 63.77604Q361.26562 63.86979 361.42188 63.86979Q361.5625 63.86979 361.65625 63.77604Q361.78125 63.666664 361.78125 63.49479ZM354.9375 63.635414Q354.9375 63.447914 354.82812 63.33854Q354.73438 63.24479 354.59375 63.24479Q354.4375 63.24479 354.34375 63.33854Q354.23438 63.447914 354.23438 63.635414L354.23438 65.18229Q354.23438 65.697914 354.5625 65.979164Q354.875 66.229164 355.40625 66.229164L361.82812 66.229164Q362.125 66.229164 362.125 65.93229Q362.125 65.635414 361.82812 65.635414L355.51562 65.635414Q355.17188 65.635414 355.0625 65.52604Q354.9375 65.416664 354.9375 65.08854L354.9375 63.635414ZM369.65625 57.072914Q369.65625 58.55729 368.4375 59.541664Q367.35938 60.416664 365.875 60.541664Q365.6875 60.541664 365.60938 60.65104Q365.53125 60.760414 365.53125 60.885414Q365.5625 61.010414 365.67188 61.104164Q365.78125 61.197914 365.95312 61.166664Q367.40625 60.96354 368.5625 60.197914Q369.65625 59.46354 370.0 58.52604Q370.35938 59.447914 371.45312 60.197914Q372.59375 60.96354 373.96875 61.166664Q374.17188 61.197914 374.3125 61.104164Q374.4375 61.010414 374.45312 60.885414Q374.48438 60.74479 374.40625 60.635414Q374.3125 60.52604 374.14062 60.510414Q372.64062 60.354164 371.57812 59.510414Q370.34375 58.541664 370.34375 57.072914Q370.34375 56.885414 370.21875 56.791664Q370.125 56.697914 370.0 56.697914Q369.85938 56.697914 369.76562 56.791664Q369.65625 56.885414 369.65625 57.072914ZM374.57812 62.416664L365.45312 62.416664Q365.125 62.416664 365.10938 62.71354Q365.10938 63.02604 365.40625 63.02604L369.65625 63.02604L369.65625 66.166664Q369.65625 66.322914 369.76562 66.43229Q369.85938 66.510414 370.0 66.510414Q370.125 66.510414 370.21875 66.416664Q370.34375 66.322914 370.34375 66.15104L370.34375 63.02604L374.59375 63.02604Q374.90625 63.02604 374.90625 62.71354Q374.89062 62.416664 374.57812 62.416664Z" fill-rule="nonzero"/><path fill="#757575" d="M34.6125 22.721874L23.925 22.721874Q22.971874 22.721874 22.440624 23.253124Q21.95625 23.784374 21.95625 24.675L21.95625 29.346874Q21.95625 30.128124 22.440624 30.596874Q22.925 31.08125 23.8 31.08125L34.89375 31.08125Q35.39375 31.08125 35.3625 30.596874Q35.3625 30.1125 34.8625 30.1125L23.909374 30.1125Q23.471874 30.1125 23.3 29.925Q23.128124 29.76875 23.128124 29.409374L23.128124 24.440624Q23.128124 24.065624 23.315624 23.89375Q23.51875 23.7375 23.940624 23.7375L34.70625 23.7375Q34.925 23.7375 35.034374 23.565624Q35.159374 23.425 35.159374 23.2375Q35.128124 23.01875 35.003124 22.878124Q34.8625 22.721874 34.6125 22.721874ZM27.9875 32.159374L27.9875 36.20625L20.971874 36.20625Q20.70625 36.20625 20.55 36.33125Q20.409374 36.4875 20.39375 36.690624Q20.3625 36.878124 20.4875 37.034374Q20.596874 37.190624 20.815624 37.190624L36.14375 37.190624Q36.409374 37.190624 36.565624 37.034374Q36.721874 36.878124 36.721874 36.690624Q36.721874 36.4875 36.565624 36.33125Q36.409374 36.20625 36.128124 36.20625L29.1125 36.20625L29.1125 32.2375Q29.1125 31.95625 28.925 31.8Q28.76875 31.64375 28.55 31.64375Q28.315624 31.628124 28.159374 31.76875Q27.9875 31.909374 27.9875 32.159374ZM52.8625 22.721874L42.675 22.721874Q42.08125 22.721874 42.08125 23.2375Q42.08125 23.7375 42.659374 23.7375L52.675 23.7375Q53.159374 23.7375 53.378124 23.878124Q53.6125 24.034374 53.6125 24.425L53.6125 26.01875Q53.6125 26.315624 53.3625 26.471874Q53.14375 26.6125 52.70625 26.6125L43.846874 26.6125Q42.971874 26.6125 42.471874 27.096874Q42.05 27.55 42.05 28.26875L42.05 30.378124Q42.05 31.175 42.471874 31.64375Q42.909374 32.096874 43.64375 32.096874L54.659374 32.096874Q54.925 32.096874 55.05 31.940624Q55.190624 31.784374 55.190624 31.596874Q55.190624 31.39375 55.034374 31.2375Q54.878124 31.096874 54.628124 31.096874L44.1125 31.096874Q43.6125 31.096874 43.39375 30.925Q43.20625 30.753124 43.20625 30.3625L43.20625 28.39375Q43.20625 27.971874 43.39375 27.8Q43.596874 27.628124 44.065624 27.628124L52.89375 27.628124Q53.8625 27.628124 54.3 27.3Q54.784374 26.940624 54.784374 26.128124L54.784374 24.3Q54.784374 23.51875 54.3 23.1125Q53.8 22.721874 52.8625 22.721874ZM48.003124 32.39375L48.003124 36.20625L40.971874 36.20625Q40.70625 36.20625 40.55 36.33125Q40.409374 36.4875 40.39375 36.690624Q40.3625 36.878124 40.4875 37.034374Q40.596874 37.190624 40.815624 37.190624L56.14375 37.190624Q56.409374 37.190624 56.565624 37.034374Q56.721874 36.878124 56.721874 36.690624Q56.721874 36.4875 56.565624 36.33125Q56.409374 36.20625 56.128124 36.20625L49.14375 36.20625L49.14375 32.471874Q49.14375 32.190624 48.940624 32.034374Q48.784374 31.878124 48.565624 31.878124Q48.33125 31.8625 48.175 32.003124Q48.003124 32.14375 48.003124 32.39375ZM74.87813 22.690624L62.284374 22.690624Q61.7375 22.690624 61.7375 23.175Q61.721874 23.675 62.26875 23.675L67.9875 23.675Q67.8625 25.003124 66.01875 26.05Q64.19063 27.065624 61.659374 27.315624Q61.33125 27.33125 61.175 27.503124Q61.034374 27.690624 61.096874 27.89375Q61.128124 28.128124 61.3 28.26875Q61.51875 28.425 61.83125 28.39375Q64.25313 28.1125 66.14375 27.175Q67.97188 26.284374 68.55 25.159374Q69.15938 26.284374 70.97188 27.175Q72.89375 28.1125 75.33125 28.39375Q75.59688 28.425 75.8 28.26875Q75.97188 28.128124 76.01875 27.89375Q76.05 27.690624 75.94063 27.503124Q75.8 27.33125 75.51875 27.315624Q72.8625 27.034374 71.05 26.01875Q69.22188 25.003124 69.1125 23.675L74.87813 23.675Q75.3625 23.675 75.3625 23.175Q75.3625 22.690624 74.87813 22.690624ZM76.12813 30.503124L69.09688 30.503124L69.09688 28.346874Q69.09688 27.846874 68.53438 27.8625Q67.97188 27.8625 67.97188 28.39375L67.97188 30.503124L60.971874 30.503124Q60.70625 30.503124 60.55 30.628124Q60.409374 30.784374 60.39375 30.9875Q60.3625 31.175 60.4875 31.33125Q60.596874 31.4875 60.815624 31.4875L76.14375 31.4875Q76.40938 31.4875 76.56563 31.33125Q76.72188 31.175 76.72188 30.9875Q76.72188 30.784374 76.56563 30.628124Q76.40938 30.503124 76.12813 30.503124ZM68.55 32.8625Q65.08125 32.8625 63.315624 33.675Q61.7375 34.425 61.7375 35.7375Q61.7375 37.01875 63.315624 37.76875Q65.08125 38.58125 68.55 38.58125Q72.00313 38.58125 73.76875 37.76875Q75.3625 37.01875 75.3625 35.7375Q75.3625 34.409374 73.76875 33.675Q72.03438 32.8625 68.55 32.8625ZM68.55 33.83125Q71.50313 33.83125 72.925 34.346874Q74.2375 34.815624 74.2375 35.7375Q74.2375 36.6125 72.925 37.065624Q71.50313 37.596874 68.55 37.596874Q65.58125 37.596874 64.15938 37.065624Q62.8625 36.6125 62.8625 35.7375Q62.8625 34.815624 64.15938 34.346874Q65.58125 33.83125 68.55 33.83125ZM93.25313 22.58125L82.51875 22.58125Q81.925 22.58125 81.90938 23.08125Q81.90938 23.58125 82.50313 23.58125L93.05 23.58125Q93.55 23.58125 93.76875 23.7375Q93.9875 23.89375 93.9875 24.3L93.9875 25.346874Q93.9875 25.659374 93.75313 25.784374Q93.53438 25.940624 93.09688 25.940624L83.76875 25.940624Q82.8625 25.940624 82.39375 26.378124Q81.95625 26.8 81.95625 27.503124L81.95625 28.753124Q81.95625 29.45625 82.45625 29.909374Q82.97188 30.3625 83.78438 30.3625L94.8625 30.3625Q95.12813 30.3625 95.31563 30.190624Q95.44063 30.05 95.44063 29.846874Q95.44063 29.64375 95.28438 29.503124Q95.1125 29.346874 94.84688 29.346874L84.01875 29.346874Q83.56563 29.346874 83.3625 29.175Q83.12813 28.971874 83.12813 28.565624L83.12813 27.70625Q83.12813 27.315624 83.3 27.1125Q83.51875 26.940624 83.95625 26.940624L93.33125 26.940624Q94.2375 26.940624 94.69063 26.55Q95.15938 26.159374 95.15938 25.346874L95.15938 24.128124Q95.15938 23.471874 94.65938 23.034374Q94.14375 22.58125 93.25313 22.58125ZM96.19063 32.33125L80.97188 32.33125Q80.70625 32.33125 80.51875 32.4875Q80.39375 32.628124 80.39375 32.846874Q80.3625 33.034374 80.4875 33.175Q80.62813 33.346874 80.87813 33.346874L84.55 33.346874L84.55 35.20625Q84.55 36.096874 84.40938 36.596874Q84.25313 37.175 83.8 37.64375Q83.59688 37.846874 83.6125 38.096874Q83.62813 38.315624 83.8 38.471874Q83.9875 38.628124 84.22188 38.628124Q84.47188 38.6125 84.65938 38.409374Q85.12813 37.8625 85.425 37.065624Q85.72188 36.20625 85.72188 35.20625L85.72188 33.346874L91.95625 33.346874L91.95625 37.95625Q91.95625 38.2375 92.12813 38.409374Q92.28438 38.55 92.51875 38.55Q92.75313 38.55 92.90938 38.39375Q93.09688 38.221874 93.09688 37.940624L93.09688 33.346874L96.22188 33.346874Q96.72188 33.346874 96.72188 32.846874Q96.69063 32.33125 96.19063 32.33125ZM106.3 22.76875Q104.06563 22.76875 102.7375 24.01875Q101.56563 25.14375 101.56563 26.8Q101.56563 28.440624 102.7375 29.565624Q104.03438 30.815624 106.3 30.815624Q108.51875 30.815624 109.81563 29.565624Q111.01875 28.425 111.01875 26.8Q111.01875 25.14375 109.81563 24.01875Q108.4875 22.76875 106.3 22.76875ZM106.3 23.7375Q108.00313 23.7375 108.9875 24.675Q109.84688 25.534374 109.84688 26.8Q109.84688 28.08125 108.9875 28.909374Q108.00313 29.846874 106.3 29.846874Q104.55 29.846874 103.56563 28.909374Q102.70625 28.08125 102.70625 26.8Q102.70625 25.534374 103.56563 24.675Q104.56563 23.7375 106.3 23.7375ZM114.84688 37.940624L114.84688 22.721874Q114.84688 22.471874 114.64375 22.33125Q114.4875 22.190624 114.25313 22.190624Q114.00313 22.190624 113.84688 22.33125Q113.675 22.4875 113.675 22.7375L113.675 37.940624Q113.675 38.221874 113.84688 38.39375Q114.00313 38.55 114.25313 38.55Q114.4875 38.55 114.64375 38.39375Q114.84688 38.221874 114.84688 37.940624ZM100.81563 35.08125Q100.51875 35.08125 100.34688 35.221874Q100.19063 35.3625 100.19063 35.58125Q100.19063 35.76875 100.34688 35.909374Q100.51875 36.065624 100.81563 36.065624Q104.58125 36.065624 107.22188 35.89375Q110.50313 35.675 112.76875 35.190624Q113.01875 35.1125 113.15938 34.925Q113.28438 34.753124 113.2375 34.58125Q113.175 34.378124 113.00313 34.284374Q112.76875 34.190624 112.45625 34.26875Q110.28438 34.690624 106.95625 34.909374Q104.2375 35.08125 100.81563 35.08125Z" fill-rule="nonzero"/><path fill="#757575" d="M133.9875 22.8Q133.9875 25.284374 131.95625 26.925Q130.14375 28.39375 127.675 28.58125Q127.3625 28.596874 127.22188 28.784374Q127.09688 28.95625 127.1125 29.175Q127.14375 29.378124 127.33125 29.51875Q127.51875 29.675 127.81563 29.64375Q130.2375 29.3 132.14375 28.01875Q133.97188 26.784374 134.55 25.221874Q135.15938 26.76875 136.97188 28.01875Q138.8625 29.3 141.175 29.64375Q141.50313 29.675 141.7375 29.51875Q141.94063 29.378124 141.97188 29.175Q142.03438 28.940624 141.89375 28.753124Q141.7375 28.565624 141.44063 28.55Q138.94063 28.284374 137.175 26.878124Q135.1125 25.26875 135.1125 22.815624Q135.1125 22.503124 134.925 22.33125Q134.76875 22.175 134.55 22.175Q134.31563 22.175 134.15938 22.33125Q133.9875 22.503124 133.9875 22.8ZM142.175 31.721874L126.97188 31.721874Q126.425 31.721874 126.40938 32.221874Q126.39375 32.721874 126.89375 32.721874L133.9875 32.721874L133.9875 37.95625Q133.9875 38.2375 134.15938 38.409374Q134.31563 38.55 134.55 38.55Q134.76875 38.55 134.925 38.39375Q135.1125 38.221874 135.1125 37.940624L135.1125 32.721874L142.20625 32.721874Q142.72188 32.721874 142.72188 32.221874Q142.69063 31.721874 142.175 31.721874Z" fill-rule="nonzero"/></svg>